<?xml version="1.0" encoding="UTF-8" standalone="no"?>
<!-- Created with Inkscape (http://www.inkscape.org/) -->

<svg
   width="53.462906mm"
   height="53.462906mm"
   viewBox="0 0 53.462903 53.462907"
   version="1.1"
   id="svg5"
   xmlns="http://www.w3.org/2000/svg">
  <defs
     id="defs2">
    <style
       id="style4895">.cls-1{fill:none;}.cls-2{fill:#3d3d63;}</style>
  </defs>
  <g
     id="layer1"
     transform="translate(-97.478504,-126.53311)">
    <g
       id="g924"
       transform="matrix(0.26458333,0,0,0.26458333,40.111075,83.80933)">
      <g
         id="g9041">
        <path
           style="fill:#7b08a3;fill-opacity:1;stroke:none;stroke-width:6.49614;stroke-miterlimit:4;stroke-dasharray:none;stroke-opacity:1"
           d="m 75.378651,171.6201 c -0.979295,-1.08211 -1.197176,-2.74568 -1.197176,-9.14079 v -7.81793 H 49.327403 24.473329 l -2.614067,-2.39536 -2.614068,-2.39537 -0.189428,-46.94908 C 18.846313,51.009591 18.67063,53.183707 23.303165,50.359086 c 2.175693,-1.326599 3.962528,-1.366163 61.815097,-1.368703 l 59.574648,-0.0026 3.43837,-5.773558 c 2.69005,-4.516994 3.82249,-5.819005 5.20326,-5.982369 1.12709,-0.133349 2.22634,-1.018519 3.04182,-2.449388 6.65263,-11.673063 20.68289,-12.54784 27.00649,-1.683838 1.82344,3.132678 2.09372,4.235629 1.93202,7.884045 -0.16943,3.822935 0.0255,4.514041 1.97362,6.998252 2.93927,3.748028 3.68643,5.303767 4.42369,9.210969 1.07946,5.720736 -0.11477,9.366948 -6.96619,21.269074 -3.4598,6.0103 -6.29055,11.70272 -6.29055,12.649822 0,0.947101 0.7873,2.461636 1.74956,3.365631 1.87858,1.764834 2.26787,4.100542 0.90977,5.458637 -1.29428,1.29428 -2.40568,1.01975 -4.96353,-1.226079 -2.64866,-2.325562 -4.26745,-6.683168 -3.57718,-9.629398 0.25145,-1.073228 3.26256,-6.852988 6.69136,-12.843911 3.4288,-5.990921 6.42242,-12.052531 6.65248,-13.470241 0.50009,-3.081721 -0.73898,-7.886736 -2.63099,-10.202705 -1.65923,-2.031034 -2.37785,-1.60018 -1.295,0.776423 0.71322,1.565334 0.0728,2.970889 -6.62214,14.532873 l -7.41171,12.799938 v 33.53035 c 0,36.42452 0.0567,35.86218 -3.92944,38.99764 -1.80802,1.42219 -2.55292,1.46145 -27.73239,1.46145 h -25.87448 l -15.670941,8.81338 c -8.61902,4.84736 -16.234354,8.96072 -16.922963,9.1408 -0.68861,0.18007 -1.790747,-0.26788 -2.449195,-0.99546 z m 19.604892,-15.0342 13.364367,-7.52312 25.78108,-0.0107 c 14.17959,-0.006 26.1784,-0.26294 26.664,-0.57121 0.69153,-0.43898 0.84324,-6.57646 0.69983,-28.31279 l -0.1831,-27.752315 -8.27805,14.290915 c -7.23701,12.49374 -8.55714,14.37921 -10.49737,14.99299 -1.22064,0.38614 -6.41555,1.97698 -11.54425,3.53521 l -9.32491,2.83315 H 86.426178 c -31.102318,0 -35.368055,-0.1291 -36.338685,-1.09973 -1.309737,-1.30973 -1.422257,-3.19659 -0.259936,-4.35891 0.629746,-0.62974 9.20659,-0.83979 34.291437,-0.83979 26.308856,0 33.446006,-0.18679 33.425216,-0.87478 -0.0145,-0.48113 -0.93281,-4.64529 -2.04063,-9.25368 -1.53914,-6.40264 -1.83924,-8.71349 -1.27233,-9.79755 0.40803,-0.78026 6.52252,-11.402993 13.58775,-23.60607 7.06523,-12.203077 12.84587,-22.516751 12.84587,-22.919277 0,-1.015531 -112.220211,-1.022824 -114.117518,-0.0074 -1.31708,0.704879 -1.353643,1.958142 -1.353643,46.398417 0,34.59109 0.203776,45.87774 0.83979,46.51376 0.622989,0.62299 7.542561,0.83979 26.803307,0.83979 19.260745,0 26.180317,0.2168 26.803306,0.83979 0.539877,0.53987 0.839791,3.30991 0.839791,7.75639 0,3.80414 0.256336,6.81164 0.569636,6.68333 0.3133,-0.1283 6.583599,-3.61868 13.934004,-7.75639 z m 37.485717,-38.07761 c 1.07353,-0.23304 1.8442,-0.74672 1.7126,-1.14149 -0.38431,-1.15294 -12.03781,-7.5525 -12.30547,-6.75759 -0.13371,0.3971 0.2881,2.88965 0.93736,5.53898 l 1.18045,4.81697 3.2616,-1.01657 c 1.79388,-0.55912 4.13994,-1.20725 5.21346,-1.4403 z M 158.886,84.766278 c 9.25559,-15.925429 16.73652,-29.0208 16.62428,-29.100826 -0.11223,-0.08003 -4.74669,-2.729945 -10.2988,-5.88871 -8.08642,-4.600608 -10.25746,-5.563655 -10.91265,-4.840699 -0.94442,1.042131 -32.26079,54.960098 -32.83848,56.538617 -0.28064,0.76686 2.30229,2.59424 9.58514,6.7813 5.48311,3.15236 10.20394,5.67173 10.49074,5.5986 0.28678,-0.0731 8.09418,-13.16286 17.34977,-29.088282 z m 19.29564,-39.597196 c 2.09583,-4.577883 1.77278,-7.861671 -1.08842,-11.063916 -2.35809,-2.639156 -7.64496,-3.419588 -11.09153,-1.637297 -1.92036,0.993059 -6.34673,7.056329 -5.65178,7.741846 0.64091,0.632206 15.01663,8.748798 15.5199,8.762598 0.30997,0.0085 1.35029,-1.702954 2.31183,-3.803231 z"
           id="path5202"
           transform="translate(216.82178,161.47571)" />
        <path
           style="fill:#7b08a3;fill-opacity:1;stroke:none;stroke-width:6.49614;stroke-miterlimit:4;stroke-dasharray:none;stroke-opacity:1"
           d="m 49.827557,104.134 c -1.16232,-1.16232 -1.049802,-3.04918 0.259935,-4.358916 0.955793,-0.955792 4.155023,-1.099725 24.443896,-1.099725 20.288873,0 23.488103,0.143933 24.443896,1.099725 1.395866,1.395866 1.395866,2.703106 0,4.098976 -0.956276,0.95628 -4.178653,1.09973 -24.703831,1.09973 -17.425649,0 -23.823924,-0.21982 -24.443896,-0.83979 z"
           id="path5278"
           transform="translate(216.82178,161.47571)" />
        <path
           style="fill:#7b08a3;fill-opacity:1;stroke:none;stroke-width:6.49614;stroke-miterlimit:4;stroke-dasharray:none;stroke-opacity:1"
           d="m 49.836455,81.048661 c -1.127724,-1.127724 -1.076385,-3.007708 0.109,-3.99149 0.683495,-0.567251 7.824776,-0.742058 24.942737,-0.610559 21.963448,0.168722 24.05014,0.287476 24.75731,1.408946 0.563128,0.893046 0.563128,1.556343 -6e-6,2.449388 -0.707314,1.121687 -2.798786,1.240158 -24.86631,1.408549 -18.154728,0.138533 -24.303249,-0.02535 -24.942731,-0.664834 z"
           id="path5317"
           transform="translate(216.82178,161.47571)" />
        <path
           style="fill:#7b08a3;fill-opacity:1;stroke:none;stroke-width:0.287092;stroke-miterlimit:4;stroke-dasharray:none;stroke-opacity:1"
           d="m 51.431101,105.21741 c -0.71497,-0.12101 -1.307894,-0.43362 -1.839163,-0.96969 -0.457422,-0.46154 -0.732158,-0.9453 -0.88942,-1.5661 -0.05575,-0.2201 -0.06631,-0.34847 -0.06485,-0.78867 0.0015,-0.46441 0.01106,-0.5605 0.08158,-0.82327 0.154196,-0.57461 0.417981,-1.03629 0.845463,-1.479735 0.50075,-0.519448 1.09278,-0.843921 1.776439,-0.973609 0.227523,-0.04316 1.708586,-0.04817 14.245515,-0.04817 12.416353,0 13.991593,0.0052 13.991593,0.04639 0,0.04108 -0.710727,0.04645 -6.208835,0.04693 -15.164621,0.0013 -20.130417,0.127202 -22.074689,0.559639 -0.651662,0.14494 -0.976119,0.300357 -1.283888,0.614987 -0.864101,0.883368 -1.201978,2.146398 -0.860494,3.216648 0.16377,0.51326 0.527675,1.03212 0.829621,1.18288 0.729794,0.36436 3.706892,0.55722 10.391874,0.67318 2.607286,0.0452 14.473908,0.10221 16.987313,0.0816 l 2.219098,-0.0182 v 0.13824 0.13825 l -14.002741,-0.004 c -7.701508,-0.002 -14.066494,-0.0144 -14.144412,-0.0276 z"
           id="path5356"
           transform="translate(216.82178,161.47571)" />
        <path
           style="fill:#7b08a3;fill-opacity:1;stroke:none;stroke-width:0.287092;stroke-miterlimit:4;stroke-dasharray:none;stroke-opacity:1"
           d="m 51.541843,128.1002 c -1.128252,-0.14331 -2.124584,-0.87798 -2.61767,-1.9302 -0.33698,-0.7191 -0.397609,-1.61936 -0.160224,-2.37915 0.205302,-0.65711 0.63808,-1.27542 1.182206,-1.68902 0.279697,-0.2126 0.821785,-0.47468 1.193621,-0.57709 l 0.309282,-0.0852 14.37388,-0.008 14.37388,-0.008 v 0.16524 0.16525 l -6.255228,0.0205 c -16.59717,0.0545 -23.03619,0.25918 -24.025246,0.76375 -0.324066,0.16533 -0.741405,0.89628 -0.855324,1.49807 -0.06359,0.33592 -0.03971,0.96111 0.04953,1.29646 0.142573,0.53581 0.451784,1.08835 0.854733,1.52738 0.166493,0.18139 0.255037,0.24835 0.45846,0.34668 1.335327,0.64548 5.6095,0.80694 22.667327,0.85629 3.908164,0.0113 7.105753,0.0322 7.105753,0.0464 0,0.035 -28.378701,0.0256 -28.654975,-0.009 z"
           id="path5395"
           transform="translate(216.82178,161.47571)" />
        <path
           style="fill:#7b08a3;fill-opacity:1;stroke:none;stroke-width:0.406009;stroke-miterlimit:4;stroke-dasharray:none;stroke-opacity:1"
           d="M 51.531469,82.357339 C 50.284823,82.195635 49.190478,81.283544 48.780335,80.064382 48.67291,79.74506 48.662533,79.655198 48.66163,79.036513 c -9.22e-4,-0.631188 0.0074,-0.702093 0.121361,-1.027868 0.179311,-0.512812 0.435056,-0.915739 0.835241,-1.315924 0.399798,-0.399798 0.802365,-0.655455 1.315924,-0.835699 l 0.349913,-0.122809 21.136909,-0.01116 21.136909,-0.01116 v 0.488131 0.488132 l -1.060673,-0.02925 c -2.304733,-0.06356 -5.404496,-0.115917 -9.392967,-0.158657 -22.267783,-0.23862 -31.593926,-0.108047 -33.019357,0.462297 -0.42466,0.169916 -0.914991,0.952949 -1.038814,1.658934 -0.144202,0.822175 0.110335,1.699937 0.681645,2.350622 0.239653,0.27295 0.83221,0.414433 2.234303,0.533478 2.879324,0.24447 9.232909,0.322695 20.054367,0.24691 11.044366,-0.07735 17.650933,-0.160274 20.655819,-0.259279 l 0.885756,-0.02918 -4e-5,0.470195 -3.9e-5,0.470195 -20.874475,-0.0055 c -11.480961,-0.0031 -20.999335,-0.02174 -21.151943,-0.04154 z"
           id="path5471"
           transform="translate(216.82178,161.47571)" />
        <path
           style="fill:#7b08a3;fill-opacity:1;stroke:none;stroke-width:0.203004;stroke-miterlimit:4;stroke-dasharray:none;stroke-opacity:1"
           d="m 19.107588,149.27637 c -0.280718,-0.77715 -0.4539,-1.60123 -0.518271,-2.46616 -0.0142,-0.19077 -0.02199,-3.45441 -0.02203,-9.22347 l -5.4e-5,-8.92824 h 0.295239 0.295239 l -1.36e-4,1.18642 c -7.4e-5,0.65253 0.01507,4.8523 0.03366,9.33283 0.01859,4.48052 0.03095,8.65093 0.02747,9.26758 l -0.0063,1.12118 z"
           id="path5843"
           transform="translate(216.82178,161.47571)" />
        <path
           style="fill:#7b08a3;fill-opacity:1;stroke:none;stroke-width:0.203004;stroke-miterlimit:4;stroke-dasharray:none;stroke-opacity:1"
           d="m 27.161341,155.29398 c -3.013005,-0.17311 -5.743834,-1.83339 -7.313739,-4.44657 -0.127773,-0.21268 -0.413481,-0.75645 -0.402604,-0.76624 0.0044,-0.004 1.133708,1.02499 2.509626,2.28652 l 2.501669,2.29369 h 7.946503 7.946503 v 0.32804 0.32804 l -6.446046,-0.003 c -3.545326,-0.002 -6.579186,-0.0109 -6.741912,-0.0202 z"
           id="path5882"
           transform="translate(216.82178,161.47571)" />
        <path
           style="fill:#7b08a3;fill-opacity:1;stroke:none;stroke-width:0.203004;stroke-miterlimit:4;stroke-dasharray:none;stroke-opacity:1"
           d="m 26.626936,148.43586 c -0.457595,-0.10528 -0.58876,-0.17642 -0.660024,-0.35799 -0.0258,-0.0657 -0.05413,-0.15373 -0.06297,-0.19556 l -0.01607,-0.076 0.1343,0.12434 c 0.240667,0.22281 0.456337,0.36242 0.750691,0.48594 0.214021,0.0898 0.180012,0.0943 -0.145928,0.0193 z"
           id="path5921"
           transform="translate(216.82178,161.47571)" />
        <path
           style="fill:#7b08a3;fill-opacity:1;stroke:none;stroke-width:0.203004;stroke-miterlimit:4;stroke-dasharray:none;stroke-opacity:1"
           d="m 38.184215,148.98242 c -3.656646,-0.0544 -5.433418,-0.0966 -7.238818,-0.17223 -1.198344,-0.0502 -2.465523,-0.12923 -2.941453,-0.18353 -0.0842,-0.01 2.659063,-0.0187 6.096134,-0.0203 l 6.249221,-0.003 v 0.19682 0.19683 l -0.913053,-0.005 c -0.502179,-0.003 -1.065593,-0.007 -1.252031,-0.01 z"
           id="path5960"
           transform="translate(216.82178,161.47571)" />
        <path
           style="fill:#7b08a3;fill-opacity:1;stroke:none;stroke-width:0.203004;stroke-miterlimit:4;stroke-dasharray:none;stroke-opacity:1"
           d="m 40.349299,154.98942 v -0.32804 h 10.038118 10.038119 v 0.32804 0.32804 H 50.387417 40.349299 Z"
           id="path5999"
           transform="translate(216.82178,161.47571)" />
        <path
           style="fill:#7b08a3;fill-opacity:1;stroke:none;stroke-width:0.203004;stroke-miterlimit:4;stroke-dasharray:none;stroke-opacity:1"
           d="m 46.363422,149.0393 c -3.037132,-0.009 -5.632773,-0.0229 -5.768091,-0.0312 l -0.246032,-0.0152 v -0.19467 -0.19466 h 10.038118 10.038119 v 0.22963 0.22963 l -4.270028,-0.004 c -2.348515,-0.002 -6.754953,-0.0109 -9.792086,-0.0198 z"
           id="path6038"
           transform="translate(216.82178,161.47571)" />
        <path
           style="fill:#7b08a3;fill-opacity:1;stroke:none;stroke-width:0.203004;stroke-miterlimit:4;stroke-dasharray:none;stroke-opacity:1"
           d="m 80.74712,163.29985 c -0.163962,-1.25775 -0.229101,-2.76575 -0.267814,-6.20002 -0.02215,-1.96473 -0.03736,-2.49966 -0.09828,-3.45539 -0.103755,-1.62783 -0.279984,-2.78828 -0.511091,-3.36544 -0.08139,-0.20327 -0.149766,-0.3127 -0.250783,-0.4014 -0.521207,-0.45762 -4.637372,-0.68572 -13.912124,-0.77095 -1.383248,-0.0127 -3.137458,-0.029 -3.898245,-0.0361 l -1.383248,-0.013 v -0.22721 -0.22722 l 8.764217,0.006 8.764218,0.006 0.22963,0.0579 c 0.676732,0.17064 1.176468,0.44882 1.641293,0.91365 0.505483,0.50548 0.822284,1.11516 0.93953,1.80813 0.04335,0.25622 0.04385,0.33832 0.03826,6.27374 l -0.0057,6.01412 z"
           id="path6373"
           transform="translate(216.82178,161.47571)" />
        <path
           style="fill:#7b08a3;fill-opacity:1;stroke:none;stroke-width:0.574183;stroke-miterlimit:4;stroke-dasharray:none;stroke-opacity:1"
           d="m 76.887501,173.09744 c -1.065826,-0.20643 -2.004002,-0.93287 -2.442899,-1.89155 -0.345603,-0.75489 -0.3384,-0.57376 -0.339565,-8.53903 l -0.0011,-7.34545 H 67.268831 60.4337 v -0.30928 -0.30928 h 6.861053 6.861053 l 0.02836,6.35574 c 0.03145,7.04784 0.06444,7.75899 0.422363,9.10557 0.273928,1.03056 0.880187,1.79307 1.756549,2.20925 0.62346,0.29608 1.114911,0.37283 1.530601,0.23902 1.109902,-0.35726 8.418696,-4.35231 24.095051,-13.17055 l 8.42466,-4.73903 h 3.98988 3.98987 v 0.30928 0.30928 l -4.2217,2.4e-4 -4.22169,2.3e-4 -10.60838,5.97468 c -5.834604,3.28608 -12.821284,7.22028 -15.525955,8.74268 -2.704671,1.52241 -5.084596,2.83051 -5.288722,2.90691 -0.366798,0.13728 -1.277548,0.22134 -1.639195,0.15129 z"
           id="path6523"
           transform="translate(216.82178,161.47571)" />
        <path
           style="fill:#7b08a3;fill-opacity:1;stroke:none;stroke-width:0.574183;stroke-miterlimit:4;stroke-dasharray:none;stroke-opacity:1"
           d="m 80.943685,164.18746 c -0.02177,-0.0567 -0.01778,-0.12492 0.0088,-0.15155 0.103851,-0.10385 26.792295,-15.05472 27.141515,-15.20469 l 0.37114,-0.15937 12.17025,-0.0162 12.17024,-0.0162 v 0.18632 0.18633 h -12.21616 -12.21615 l -6.87387,3.86988 c -14.310286,8.05647 -20.321537,11.40865 -20.458397,11.40865 -0.03181,0 -0.07565,-0.0464 -0.09742,-0.10313 z"
           id="path6562"
           transform="translate(216.82178,161.47571)" />
        <path
           style="fill:#7b08a3;fill-opacity:1;stroke:none;stroke-width:0.574183;stroke-miterlimit:4;stroke-dasharray:none;stroke-opacity:1"
           d="m 118.39314,155.02153 v -0.30268 l 18.10846,-0.0355 c 17.17058,-0.0336 20.58887,-0.0677 23.02605,-0.22931 1.95205,-0.12945 3.19668,-0.37938 3.88396,-0.77993 0.35121,-0.20469 1.69033,-1.28264 2.10337,-1.69316 1.57202,-1.56242 2.05313,-3.8611 2.3032,-11.00455 0.0981,-2.80158 0.18047,-12.86604 0.18222,-22.25852 0.002,-8.44803 0.002,-8.48979 0.12529,-8.48979 0.12343,0 0.12371,0.0408 0.12231,17.92289 -8.4e-4,10.65582 -0.0251,18.2273 -0.0598,18.67367 -0.10532,1.35397 -0.38906,2.36197 -0.99979,3.55176 -0.62298,1.21366 -1.55627,2.31117 -2.68131,3.15313 -0.98406,0.73644 -2.50112,1.38226 -3.86603,1.6458 -0.56159,0.10843 -1.51099,0.11424 -21.41777,0.13116 l -20.83015,0.0177 z"
           id="path6601"
           transform="translate(216.82178,161.47571)" />
        <path
           style="fill:#7b08a3;fill-opacity:1;stroke:none;stroke-width:0.574183;stroke-miterlimit:4;stroke-dasharray:none;stroke-opacity:1"
           d="m 132.80568,148.82649 v -0.18557 l 12.78881,0.01 c 7.03385,0.005 12.32953,0.0303 11.76818,0.0556 -3.44965,0.1559 -13.22966,0.30351 -20.21157,0.30505 l -4.34542,9.6e-4 z"
           id="path6640"
           transform="translate(216.82178,161.47571)" />
        <path
           style="fill:#7b08a3;fill-opacity:1;stroke:none;stroke-width:0.574183;stroke-miterlimit:4;stroke-dasharray:none;stroke-opacity:1"
           d="m 100.71714,156.74205 0.016,-3.35469 3.83204,-2.15672 3.83203,-2.15672 16.20944,-7.6e-4 c 8.91519,-4.3e-4 18.4641,-0.0278 21.21981,-0.0608 9.23744,-0.11069 14.46648,-0.29076 14.93745,-0.51438 0.80577,-0.38259 0.90393,-5.70872 0.70222,-38.09978 l -0.0411,-6.60318 h 3.25755 3.25756 l -0.001,12.35582 c -0.001,12.49494 -0.0695,21.80664 -0.18349,24.97452 -0.25512,7.09104 -0.75525,9.37561 -2.39065,10.92022 -0.49047,0.46324 -1.52379,1.27778 -1.93655,1.52652 -0.6608,0.39824 -1.36087,0.58155 -2.78499,0.72926 -2.65531,0.27541 -8.22397,0.33487 -31.60601,0.33752 l -18.6448,0.002 -4.58226,2.57574 c -2.52024,1.41666 -4.7008,2.64421 -4.84568,2.72788 l -0.26343,0.15213 z"
           id="path6679"
           transform="translate(216.82178,161.47571)" />
        <path
           style="fill:#7b08a3;fill-opacity:1;stroke:none;stroke-width:0.574183;stroke-miterlimit:4;stroke-dasharray:none;stroke-opacity:1"
           d="m 160.08071,148.48111 c 0.32542,-0.11876 0.52985,-0.23976 0.76139,-0.45066 0.19335,-0.17613 0.21918,-0.0993 0.0714,0.21225 -0.11183,0.23565 -0.14905,0.25159 -0.70538,0.30213 l -0.40207,0.0365 z"
           id="path6718"
           transform="translate(216.82178,161.47571)" />
        <path
           style="fill:#7b08a3;fill-opacity:1;stroke:none;stroke-width:0.574183;stroke-miterlimit:4;stroke-dasharray:none;stroke-opacity:1"
           d="m 122.16638,127.95161 c 0.25516,-0.081 3.76242,-1.15007 7.79391,-2.37582 10.87467,-3.30637 12.73597,-3.88496 13.14448,-4.08603 0.988,-0.48627 2.05471,-1.72595 3.73833,-4.34451 1.50125,-2.33489 3.37754,-5.51644 10.09842,-17.12346 2.29498,-3.963445 4.20616,-7.261937 4.24707,-7.329979 0.0625,-0.103965 0.0717,-0.06447 0.0572,0.247425 -0.0171,0.370414 -0.0324,0.397526 -7.84198,13.886724 -7.66191,13.23419 -7.83449,13.52537 -8.28875,13.98545 -0.33201,0.33626 -0.57825,0.5233 -0.86599,0.65779 -0.22114,0.10336 -5.15354,1.63861 -10.96089,3.41166 -10.387,3.17128 -10.56718,3.22369 -11.0723,3.22084 l -0.51347,-0.003 z"
           id="path6794"
           transform="translate(216.82178,161.47571)" />
        <path
           style="fill:#7b08a3;fill-opacity:1;stroke:none;stroke-width:0.574183;stroke-miterlimit:4;stroke-dasharray:none;stroke-opacity:1"
           d="m 142.20786,112.7303 c 0,-0.0186 3.08603,-5.34216 6.85786,-11.83003 3.77182,-6.487873 11.13715,-19.158588 16.36741,-28.157147 5.23025,-8.99856 9.5633,-16.449364 9.629,-16.557343 l 0.11946,-0.196326 -0.63617,-0.360382 -0.63616,-0.360381 0.39066,-0.01852 c 0.35177,-0.01668 0.43055,0.0038 0.79151,0.205653 l 0.40086,0.224174 -0.32127,0.59848 c -3.94066,7.340901 -25.74382,44.809862 -32.12212,55.202212 -0.71767,1.16933 -0.84104,1.35263 -0.84104,1.24961 z"
           id="path6870"
           transform="translate(216.82178,161.47571)" />
        <path
           style="fill:#7b08a3;fill-opacity:1;stroke:none;stroke-width:0.574183;stroke-miterlimit:4;stroke-dasharray:none;stroke-opacity:1"
           d="m 139.71715,112.99009 c -3.81809,-1.94548 -11.50006,-6.32798 -14.7363,-8.40693 -1.17715,-0.75619 -2.27755,-1.53124 -2.23477,-1.57401 0.0155,-0.0155 0.3159,0.13742 0.66755,0.33982 5.89523,3.3931 17.6956,10.19895 17.83545,10.28658 0.13251,0.083 0.15433,0.11658 0.0763,0.11732 -0.0601,5.6e-4 -0.7838,-0.34268 -1.60827,-0.76278 z"
           id="path6909"
           transform="translate(216.82178,161.47571)" />
        <path
           style="fill:#7b08a3;fill-opacity:1;stroke:none;stroke-width:0.574183;stroke-miterlimit:4;stroke-dasharray:none;stroke-opacity:1"
           d="m 123.95655,120.66822 c -0.19816,-0.73591 -1.3786,-5.64669 -1.54309,-6.41946 -0.32351,-1.51981 -0.64616,-3.75585 -0.49537,-3.43303 0.0318,0.068 0.55057,2.274 1.15287,4.90212 0.77782,3.39401 1.11899,4.77841 1.17758,4.77841 0.0454,0 2.28487,-0.66938 4.97666,-1.48752 2.69179,-0.81813 4.90516,-1.47651 4.91861,-1.46306 0.0135,0.0134 -0.033,0.0974 -0.10313,0.18663 -0.22787,0.2897 -0.94587,0.58101 -2.22923,0.90449 -1.8137,0.45714 -3.24797,0.87098 -6.15018,1.77455 -0.8165,0.25421 -1.51859,0.47357 -1.56019,0.48746 -0.0454,0.0152 -0.10319,-0.0771 -0.14453,-0.23059 z"
           id="path6948"
           transform="translate(216.82178,161.47571)" />
        <path
           style="fill:#7b08a3;fill-opacity:1;stroke:none;stroke-width:0.574183;stroke-miterlimit:4;stroke-dasharray:none;stroke-opacity:1"
           d="m 128.76898,114.10873 c -2.64546,-1.53267 -4.79685,-2.79975 -4.78087,-2.81572 0.0991,-0.0991 4.24529,2.09385 6.41433,3.39271 1.72897,1.03534 3.47569,2.22942 3.23831,2.21376 -0.034,-0.002 -2.22632,-1.25808 -4.87177,-2.79075 z"
           id="path7063"
           transform="translate(216.82178,161.47571)" />
        <path
           style="fill:#7b08a3;fill-opacity:1;stroke:none;stroke-width:0.574183;stroke-miterlimit:4;stroke-dasharray:none;stroke-opacity:1"
           d="m 117.31325,120.98663 c -0.0181,-0.0486 -0.91602,-3.88783 -1.99541,-8.5317 -1.9235,-8.27553 -1.96248,-8.45631 -1.96064,-9.09289 0.002,-0.52665 0.0304,-0.73085 0.1529,-1.07964 0.0992,-0.28249 3.48459,-6.178886 9.86248,-17.17759 9.16579,-15.806443 9.72102,-16.747615 9.88156,-16.750468 0.0936,-0.0017 0.17011,0.01132 0.17011,0.02885 0,0.06351 -2.8334,4.997097 -8.13459,14.164165 -6.13758,10.613384 -10.77979,18.690633 -11.05766,19.239833 -0.60545,1.19667 -0.34956,3.12074 1.40228,10.54403 0.87553,3.70997 1.34379,5.78308 1.64725,7.29284 0.2275,1.13189 0.24389,1.27158 0.15911,1.35636 -0.0806,0.0806 -0.0994,0.0815 -0.12739,0.006 z"
           id="path7102"
           transform="translate(216.82178,161.47571)" />
        <path
           style="fill:#7b08a3;fill-opacity:1;stroke:none;stroke-width:0.574183;stroke-miterlimit:4;stroke-dasharray:none;stroke-opacity:1"
           d="m 121.48784,101.64398 c -0.001,-0.0774 0.0992,-0.34153 0.22285,-0.58696 1.21856,-2.419752 13.95918,-24.50565 26.22497,-45.461064 1.2787,-2.18459 1.29512,-2.208874 1.49536,-2.211366 0.19493,-0.0024 0.19919,0.0027 0.11451,0.136657 -0.0755,0.119435 -27.41994,47.157923 -27.98465,48.139743 -0.0691,0.12011 -0.0712,0.11962 -0.073,-0.017 z"
           id="path7141"
           transform="translate(216.82178,161.47571)" />
        <path
           style="fill:#7b08a3;fill-opacity:1;stroke:none;stroke-width:0.574183;stroke-miterlimit:4;stroke-dasharray:none;stroke-opacity:1"
           d="m 168.20288,110.32973 c -0.01,-0.0739 -0.0484,-0.10218 -0.10812,-0.0793 -0.0823,0.0316 -0.0928,-1.63551 -0.0928,-14.775664 V 80.663539 l 3.9668,-6.851995 c 7.6362,-13.190307 8.79489,-15.261849 9.64247,-17.23908 0.71784,-1.674599 0.77926,-2.347487 0.31746,-3.478063 -0.14105,-0.345333 -0.25522,-0.66544 -0.25369,-0.711348 0.004,-0.133913 0.53039,0.49218 0.73077,0.869926 0.30876,0.582036 0.39687,0.990921 0.36613,1.69898 -0.0179,0.413637 -0.0693,0.741431 -0.1514,0.966224 -0.0683,0.187115 -3.32972,5.890501 -7.24755,12.67419 l -7.12331,12.33398 -0.0157,14.759122 c -0.009,8.117515 -0.0226,14.707435 -0.031,14.644255 z"
           id="path7180"
           transform="translate(216.82178,161.47571)" />
        <path
           style="fill:#7b08a3;fill-opacity:1;stroke:none;stroke-width:0.574183;stroke-miterlimit:4;stroke-dasharray:none;stroke-opacity:1"
           d="m 178.85777,100.94506 c -0.63322,-0.0623 -1.05285,-0.23588 -1.82476,-0.7549 -2.47013,-1.660872 -4.15736,-4.20663 -4.76702,-7.192659 -0.18424,-0.902389 -0.23018,-2.674215 -0.0937,-3.615008 0.16547,-1.14087 0.56966,-2.490145 1.00986,-3.371173 0.27519,-0.550773 10.36077,-17.974939 10.38839,-17.947317 0.0867,0.08674 -2.23672,4.444258 -4.58933,8.607001 -3.19236,5.648602 -5.77267,10.561454 -6.27292,11.943478 -0.25538,0.705542 -0.33946,1.374091 -0.29444,2.341306 0.13174,2.830565 1.67587,6.007231 3.82549,7.870003 1.69656,1.470169 2.79542,2.036419 3.64076,1.876109 0.37222,-0.0706 0.4854,-0.12569 0.91432,-0.44507 0.73572,-0.54782 1.12527,-1.355019 1.12527,-2.331674 0,-1.206848 -0.45475,-2.155176 -1.63319,-3.405816 -0.88652,-0.940837 -1.41558,-1.788126 -1.6761,-2.684269 -0.13214,-0.45457 -0.12685,-0.855944 0.0173,-1.308234 l 0.11825,-0.371139 0.003,0.680421 c 0.003,0.775731 0.1126,1.321523 0.38499,1.922268 0.37495,0.826936 0.95104,1.484027 1.77972,2.029963 1.83696,1.210196 2.16985,3.541446 0.72807,5.09874 -0.73912,0.79834 -1.7022,1.16435 -2.78379,1.05797 z"
           id="path7219"
           transform="translate(216.82178,161.47571)" />
        <path
           style="fill:#7b08a3;fill-opacity:1;stroke:none;stroke-width:0.574183;stroke-miterlimit:4;stroke-dasharray:none;stroke-opacity:1"
           d="m 180.06397,87.259695 c 0,-0.21938 2.8858,-5.5903 4.8252,-8.980425 4.9504,-8.653474 6.63536,-12.4613 7.0881,-16.018318 0.12465,-0.97929 0.0907,-3.115613 -0.065,-4.085011 -0.30816,-1.91933 -0.73321,-3.629135 -1.19174,-4.793871 -0.62261,-1.581523 -1.34431,-2.744699 -3.18732,-5.137032 -0.87343,-1.133774 -1.50016,-2.02797 -1.45383,-2.074299 0.0471,-0.04712 1.47933,1.460147 1.97382,2.07725 2.04822,2.556122 3.37854,5.38756 4.0106,8.536183 0.4696,2.339267 0.50327,4.93841 0.0946,7.299055 -0.29765,1.719253 -0.95225,3.698585 -1.74905,5.288722 -0.30896,0.616584 -10.16611,17.734829 -10.29199,17.873406 -0.0294,0.03232 -0.0534,0.03877 -0.0534,0.01434 z"
           id="path7258"
           transform="translate(216.82178,161.47571)" />
        <path
           style="fill:#7b08a3;fill-opacity:1;stroke:none;stroke-width:0.574183;stroke-miterlimit:4;stroke-dasharray:none;stroke-opacity:1"
           d="m 185.20047,64.599056 c -0.001,-0.03949 0.0664,-0.331766 0.15046,-0.649493 0.30643,-1.157855 0.36829,-1.710779 0.36571,-3.268438 -0.002,-1.210992 -0.0244,-1.57236 -0.13397,-2.164974 -0.34623,-1.872168 -1.00514,-3.497938 -2.04633,-5.04899 -0.46037,-0.685821 -1.50089,-1.940783 -1.60915,-1.940783 -0.0265,0 -0.11555,0.14371 -0.19781,0.319355 l -0.14958,0.319354 -0.0437,-0.242034 c -0.15783,-0.874815 0.36062,-0.802924 1.28407,0.178056 0.67247,0.714362 1.09867,1.355002 1.59764,2.401489 0.81649,1.712396 1.34041,3.637924 1.52124,5.590891 0.13798,1.490206 0.0483,2.507362 -0.30816,3.494887 -0.26723,0.740355 -0.42692,1.11529 -0.43045,1.01068 z"
           id="path7334"
           transform="translate(216.82178,161.47571)" />
        <path
           style="fill:#7b08a3;fill-opacity:1;stroke:none;stroke-width:0.574183;stroke-miterlimit:4;stroke-dasharray:none;stroke-opacity:1"
           d="m 185.2776,42.711842 c 4.6e-4,-0.170105 0.0125,-0.232352 0.0267,-0.138326 0.0142,0.09403 0.0138,0.233202 -8.5e-4,0.309282 -0.0147,0.07608 -0.0263,-8.51e-4 -0.0258,-0.170956 z"
           id="path7373"
           transform="translate(216.82178,161.47571)" />
        <path
           style="fill:#7b08a3;fill-opacity:1;stroke:none;stroke-width:0.574183;stroke-miterlimit:4;stroke-dasharray:none;stroke-opacity:1"
           d="m 185.35449,43.97092 c -0.0225,-0.25022 -0.0321,-1.693619 -0.0214,-3.207555 0.0217,-3.04786 0.003,-3.268409 -0.38879,-4.498417 -0.46317,-1.455615 -1.78794,-3.800448 -3.01513,-5.33675 -2.41207,-3.019624 -5.61666,-4.873632 -9.31894,-5.391437 -0.83313,-0.116522 -2.82024,-0.09979 -3.68046,0.031 -2.04617,0.311087 -3.93749,0.979619 -5.66334,2.001836 -1.31348,0.777972 -2.1812,1.445802 -3.35921,2.585401 -1.30908,1.266393 -2.39229,2.655897 -3.44,4.41272 -0.56589,0.9489 -1.3295,1.888254 -1.44283,1.774916 -0.0302,-0.03019 1.78388,-3.153271 2.39049,-4.115446 2.0863,-3.309207 5.49677,-5.752785 9.35983,-6.706256 1.37256,-0.338772 2.17153,-0.432026 3.70147,-0.432026 1.43276,0 2.26225,0.08872 3.46396,0.370477 5.08363,1.191945 9.22722,4.828304 11.03229,9.681779 1.01314,2.724134 1.24697,5.808858 0.65092,8.58695 -0.0699,0.325601 -0.14974,0.615796 -0.17751,0.644879 -0.0278,0.02908 -0.0689,-0.151847 -0.0914,-0.402066 z"
           id="path7412"
           transform="translate(216.82178,161.47571)" />
        <path
           style="fill:#7b08a3;fill-opacity:1;stroke:none;stroke-width:0.574183;stroke-miterlimit:4;stroke-dasharray:none;stroke-opacity:1"
           d="m 174.65154,48.349055 c -3.65474,-1.894534 -13.58983,-7.570773 -14.18652,-8.105209 -0.12296,-0.110131 -0.14093,-0.1742 -0.11772,-0.41969 0.0599,-0.633378 1.26228,-2.616093 2.61314,-4.308958 0.68732,-0.861329 0.94615,-1.076023 0.40795,-0.338373 -0.32906,0.451 -2.78972,4.643028 -2.78843,4.750417 4.2e-4,0.0346 0.20223,0.17892 0.44846,0.320699 0.24624,0.14178 3.65817,2.111133 7.58207,4.376341 3.92391,2.265207 7.15434,4.118559 7.17873,4.118559 0.0472,0 2.35115,-3.941481 2.63947,-4.515517 0.094,-0.187116 0.26238,-0.590729 0.37422,-0.896918 0.11183,-0.306189 0.20472,-0.507862 0.20641,-0.448161 0.002,0.0597 -0.11077,0.417969 -0.24993,0.796151 -0.80358,2.183818 -2.49368,5.253083 -2.89033,5.248921 -0.0573,-6.18e-4 -0.60515,-0.260818 -1.21752,-0.578262 z"
           id="path7527"
           transform="translate(216.82178,161.47571)" />
        <path
           style="fill:#7b08a3;fill-opacity:1;stroke:none;stroke-width:0.574183;stroke-miterlimit:4;stroke-dasharray:none;stroke-opacity:1"
           d="m 179.01633,42.770802 c -0.002,-0.03561 0.057,-0.327885 0.1315,-0.649492 0.19493,-0.841741 0.19653,-2.660916 0.003,-3.534223 -0.18399,-0.83068 -0.40515,-1.462187 -0.7613,-2.173846 -0.42807,-0.855383 -0.85927,-1.458838 -1.56191,-2.185846 -0.70386,-0.728276 -1.48592,-1.310611 -2.36175,-1.758593 -0.74056,-0.378789 -0.49022,-0.347692 0.33403,0.0415 1.20409,0.568532 2.06366,1.279209 2.91205,2.407639 1.61218,2.144313 2.10448,4.275307 1.58286,6.851518 -0.14308,0.706648 -0.26901,1.159312 -0.27858,1.001348 z"
           id="path7683"
           transform="translate(216.82178,161.47571)" />
        <path
           style="fill:#7b08a3;fill-opacity:1;stroke:none;stroke-width:0.574183;stroke-miterlimit:4;stroke-dasharray:none;stroke-opacity:1"
           d="m 163.73388,34.609641 c 0,-0.07479 0.89317,-0.999879 1.41936,-1.470091 0.71986,-0.643266 1.75647,-1.124639 2.96103,-1.375018 0.68906,-0.143228 0.7942,-0.106445 0.16256,0.05687 -1.49421,0.386343 -2.75606,1.103698 -3.90892,2.222199 -0.34872,0.338324 -0.63403,0.593041 -0.63403,0.566038 z"
           id="path7722"
           transform="translate(216.82178,161.47571)" />
        <path
           style="fill:#7b08a3;fill-opacity:1;stroke:none;stroke-width:0.574183;stroke-miterlimit:4;stroke-dasharray:none;stroke-opacity:1"
           d="m 166.23907,50.842194 c -4.18459,-2.415297 -8.03148,-4.634242 -8.54865,-4.930988 -0.51717,-0.296746 -0.91254,-0.549246 -0.87859,-0.561111 0.0907,-0.03172 2.46588,1.161214 4.13851,2.078595 1.74582,0.957518 4.97071,2.782028 10.02074,5.669319 l 3.74231,2.13962 -0.43299,-0.002 -0.433,-0.002 -7.60833,-4.391449 z"
           id="path7798"
           transform="translate(216.82178,161.47571)" />
        <path
           style="fill:#7b08a3;fill-opacity:1;stroke:none;stroke-width:0.574183;stroke-miterlimit:4;stroke-dasharray:none;stroke-opacity:1"
           d="m 149.2752,53.340072 c 0.15262,-0.27253 1.7528,-2.971742 2.81706,-4.751872 1.70007,-2.843634 2.21978,-3.665574 2.36778,-3.744782 0.0655,-0.03506 0.11828,-0.04188 0.11728,-0.01517 -10e-4,0.02671 -1.11127,1.955292 -2.46726,4.285732 -2.40094,4.126309 -2.47065,4.237683 -2.66437,4.257021 -0.10942,0.01092 -0.18614,-0.003 -0.17049,-0.03093 z"
           id="path7874"
           transform="translate(216.82178,161.47571)" />
        <path
           style="fill:#7b08a3;fill-opacity:1;stroke:none;stroke-width:0.574183;stroke-miterlimit:4;stroke-dasharray:none;stroke-opacity:1"
           d="m 112.02193,48.742956 v -0.24731 l 16.30785,-0.01558 16.30785,-0.01558 3.03774,-5.209925 c 1.67076,-2.865459 3.12588,-5.333363 3.23361,-5.484232 0.16637,-0.233004 0.39197,-0.436934 0.95286,-0.861323 0.0534,-0.04044 0.12303,-0.07915 0.15464,-0.08602 0.0316,-0.0069 0.22448,-0.0736 0.42861,-0.148285 0.46593,-0.17047 1.26512,-0.223209 1.76734,-0.11663 0.20368,0.04322 0.38273,0.09865 0.39788,0.123171 0.0511,0.08265 -0.80313,0.42852 -1.28698,0.521097 -1.54888,0.29635 -2.49596,1.437727 -5.82909,7.024984 -0.84227,1.411872 -1.81425,3.040242 -2.15996,3.618599 l -0.62856,1.051559 -4.91392,0.03738 c -2.70266,0.02056 -10.05651,0.04143 -16.3419,0.04639 l -11.42797,0.009 z"
           id="path7913"
           transform="translate(216.82178,161.47571)" />
        <path
           style="fill:#7b08a3;fill-opacity:1;stroke:none;stroke-width:0.574183;stroke-miterlimit:4;stroke-dasharray:none;stroke-opacity:1"
           d="m 133.06084,68.439603 c 0.0332,-0.09493 6.92874,-11.983685 6.99164,-12.054405 0.17326,-0.194818 -0.0577,0.267305 -0.95864,1.917976 -1.12743,2.065687 -2.38218,4.311961 -4.32572,7.743994 -1.07239,1.893691 -1.32814,2.30415 -1.43569,2.30415 -0.072,0 -0.16775,0.03479 -0.21282,0.07732 -0.0451,0.04253 -0.0715,0.04746 -0.0588,0.01096 z"
           id="path7989"
           transform="translate(216.82178,161.47571)" />
        <path
           style="fill:#7b08a3;fill-opacity:1;stroke:none;stroke-width:0.574183;stroke-miterlimit:4;stroke-dasharray:none;stroke-opacity:1"
           d="m 91.841285,55.191371 c 8.819945,-0.0086 23.252595,-0.0086 32.072545,0 8.81995,0.0086 1.60362,0.0157 -16.03627,0.0157 -17.639902,0 -24.856224,-0.0071 -16.036275,-0.0157 z"
           id="path8028"
           transform="translate(216.82178,161.47571)" />
        <path
           style="fill:#7b08a3;fill-opacity:1;stroke:none;stroke-width:0.574183;stroke-miterlimit:4;stroke-dasharray:none;stroke-opacity:1"
           d="M 75.835942,54.904713 V 54.63352 l 2.056726,-0.04444 c 2.377764,-0.05138 34.316882,0.06449 42.387092,0.153768 8.70146,0.09626 15.64155,0.238524 17.90743,0.367076 0.45928,0.02606 -13.38186,0.05156 -30.75809,0.05668 l -31.593158,0.0093 z"
           id="path8067"
           transform="translate(216.82178,161.47571)" />
        <path
           style="fill:#7b08a3;fill-opacity:1;stroke:none;stroke-width:0.574183;stroke-miterlimit:4;stroke-dasharray:none;stroke-opacity:1"
           d="m 45.031457,48.742841 v -0.247426 h 33.495239 33.495234 v 0.247426 0.247425 H 78.526696 45.031457 Z"
           id="path8106"
           transform="translate(216.82178,161.47571)" />
        <path
           style="fill:#7b08a3;fill-opacity:1;stroke:none;stroke-width:0.574183;stroke-miterlimit:4;stroke-dasharray:none;stroke-opacity:1"
           d="m 29.289004,55.11107 c 4.277327,-0.228714 17.704388,-0.408317 35.242682,-0.471413 l 11.304256,-0.04067 v 0.288459 0.288458 l -23.706464,-0.0093 c -13.038555,-0.0051 -23.316768,-0.0301 -22.840474,-0.05557 z"
           id="path8145"
           transform="translate(216.82178,161.47571)" />
        <path
           style="fill:#7b08a3;fill-opacity:1;stroke:none;stroke-width:0.574183;stroke-miterlimit:4;stroke-dasharray:none;stroke-opacity:1"
           d="m 93.588728,81.928798 v -0.463923 h 0.178708 c 0.461237,0 2.478223,-0.135768 3.254322,-0.219055 2.011218,-0.215835 2.563583,-0.494998 2.932987,-1.482318 0.07245,-0.193656 0.128905,-0.491479 0.128905,-0.680099 0,-0.647318 -0.411625,-1.411635 -0.908159,-1.686299 -0.58415,-0.323128 -1.838377,-0.514413 -4.210458,-0.642146 l -1.376305,-0.07411 V 76.196537 75.71223 h 1.904553 c 2.056352,0 2.312891,0.02997 2.966425,0.346538 1.007281,0.487924 1.744584,1.568129 1.851444,2.712512 0.15074,1.614222 -1.037257,3.183485 -2.670828,3.52798 -0.324286,0.06839 -0.88724,0.09158 -2.242294,0.09239 l -1.8093,0.0011 z"
           id="path8673"
           transform="translate(216.82178,161.47571)" />
        <path
           style="fill:#7b08a3;fill-opacity:1;stroke:none;stroke-width:0.574183;stroke-miterlimit:4;stroke-dasharray:none;stroke-opacity:1"
           d="m 79.609183,105.09402 c 0,-0.12247 0.04148,-0.12372 4.128914,-0.12445 7.77976,-0.001 12.288394,-0.17007 13.995348,-0.52362 0.973431,-0.20162 1.590184,-0.69267 2.058962,-1.63932 0.181508,-0.36653 0.198458,-0.45118 0.198458,-0.991 0,-0.54608 -0.01571,-0.62215 -0.210008,-1.01683 -0.140097,-0.28457 -0.356313,-0.57457 -0.649492,-0.871124 -0.376432,-0.380762 -0.497168,-0.462952 -0.841551,-0.57288 -1.479448,-0.472242 -4.233002,-0.611697 -13.653618,-0.691492 -4.85591,-0.04113 -4.699512,-0.04327 3.915473,-0.05352 8.094255,-0.0096 9.006331,-9.11e-4 9.309388,0.08906 1.100509,0.326705 1.930607,1.114199 2.294953,2.177166 0.20061,0.58526 0.19993,1.48148 -0.002,2.06951 -0.360581,1.05233 -1.200608,1.84807 -2.293393,2.17248 -0.302299,0.0897 -1.233831,0.0997 -9.293924,0.0997 -8.916713,0 -8.95795,-5.7e-4 -8.95795,-0.12371 z"
           id="path8712"
           transform="translate(216.82178,161.47571)" />
        <path
           style="fill:#7b08a3;fill-opacity:1;stroke:none;stroke-width:0.574183;stroke-miterlimit:4;stroke-dasharray:none;stroke-opacity:1"
           d="m 80.227747,121.58775 v -0.16364 l 16.747619,0.009 c 9.225954,0.005 16.265674,0.0314 15.674534,0.0583 -2.80817,0.12799 -8.24423,0.18911 -19.818913,0.22285 l -12.60324,0.0367 z"
           id="path8751"
           transform="translate(216.82178,161.47571)" />
        <path
           style="fill:#7b08a3;fill-opacity:1;stroke:none;stroke-width:0.574183;stroke-miterlimit:4;stroke-dasharray:none;stroke-opacity:1"
           d="M 18.556919,96.681548 V 64.763647 h 0.256557 0.256558 l -0.03934,0.974239 c -0.101019,2.50174 -0.106469,14.47816 -0.01594,35.026184 0.05433,12.33262 0.09881,23.64074 0.09883,25.12916 l 4.2e-5,2.70622 h -0.278354 -0.278354 z"
           id="path8790"
           transform="translate(216.82178,161.47571)" />
        <path
           style="fill:#7b08a3;fill-opacity:1;stroke:none;stroke-width:0.406009;stroke-miterlimit:4;stroke-dasharray:none;stroke-opacity:1"
           d="m 18.589108,60.865167 c 0,-4.241829 0.0075,-4.396112 0.262291,-5.425886 0.551781,-2.229735 1.957366,-4.198676 3.898577,-5.461117 1.188266,-0.772775 2.692848,-1.289293 4.149557,-1.424531 0.336887,-0.03128 3.408675,-0.04675 9.301604,-0.04685 l 8.798604,-1.5e-4 0.01482,0.25574 0.01482,0.25574 -3.542865,0.02988 c -12.215798,0.103017 -15.963795,0.305075 -17.51363,0.944176 -0.693412,0.28594 -2.328832,1.3288 -2.778191,1.771571 -1.216644,1.198809 -1.716829,3.384441 -1.992272,8.705534 -0.06176,1.193096 -0.132184,3.21223 -0.132184,3.789864 v 0.474696 h -0.240565 -0.240565 z"
           id="path8829"
           transform="translate(216.82178,161.47571)" />
        <path
           style="fill:#7b08a3;fill-opacity:1;stroke:none;stroke-width:0.406009;stroke-miterlimit:4;stroke-dasharray:none;stroke-opacity:1"
           d="m 18.605423,60.873861 c 0.01658,-2.128008 0.0509,-4.075856 0.07649,-4.341103 0.02553,-0.264622 0.111042,-0.737004 0.190024,-1.049738 0.432582,-1.712855 1.266354,-3.159218 2.522356,-4.375589 1.20032,-1.162446 2.531412,-1.89582 4.1712,-2.298149 1.066311,-0.261624 0.696359,-0.25151 10.43581,-0.285306 l 8.948682,-0.03105 0.02817,0.10527 c 0.01549,0.0579 0.02844,0.166965 0.02876,0.242371 l 5.97e-4,0.137101 -1.410585,0.02626 c -0.775822,0.01444 -2.699795,0.03709 -4.275495,0.05032 -10.089783,0.08471 -13.993155,0.323743 -15.404854,0.943342 -0.670708,0.294375 -2.182518,1.250035 -2.64239,1.670332 -1.379722,1.260988 -1.882508,3.656095 -2.159781,10.288487 -0.02414,0.577356 -0.04395,1.438469 -0.04403,1.913585 l -1.41e-4,0.863847 h -0.247441 -0.247441 z"
           id="path8868"
           transform="translate(216.82178,161.47571)" />
      </g>
    </g>
  </g>
</svg>
