<?xml version="1.0" encoding="UTF-8" standalone="no"?>
<!-- Created with Inkscape (http://www.inkscape.org/) -->

<svg
   width="97.405754mm"
   height="94.130249mm"
   viewBox="0 0 97.405771 94.13025"
   version="1.1"
   id="svg5"
   xmlns="http://www.w3.org/2000/svg"
   xmlns:svg="http://www.w3.org/2000/svg">
  <defs
     id="defs2">
	
	
</defs>
  <g
     id="layer1"
     transform="translate(-51.860723,-59.192699)">
    <g
       id="g887"
       transform="matrix(0.26458333,0,0,0.26458333,46.355842,50.799734)">
</g>
    <g
       id="g889"
       transform="matrix(0.26458333,0,0,0.26458333,46.355842,50.799734)">
</g>
    <g
       id="g891"
       transform="matrix(0.26458333,0,0,0.26458333,46.355842,50.799734)">
</g>
    <g
       id="g893"
       transform="matrix(0.26458333,0,0,0.26458333,46.355842,50.799734)">
</g>
    <g
       id="g895"
       transform="matrix(0.26458333,0,0,0.26458333,46.355842,50.799734)">
</g>
    <g
       id="g897"
       transform="matrix(0.26458333,0,0,0.26458333,46.355842,50.799734)">
</g>
    <g
       id="g899"
       transform="matrix(0.26458333,0,0,0.26458333,46.355842,50.799734)">
</g>
    <g
       id="g901"
       transform="matrix(0.26458333,0,0,0.26458333,46.355842,50.799734)">
</g>
    <g
       id="g903"
       transform="matrix(0.26458333,0,0,0.26458333,46.355842,50.799734)">
</g>
    <g
       id="g905"
       transform="matrix(0.26458333,0,0,0.26458333,46.355842,50.799734)">
</g>
    <g
       id="g907"
       transform="matrix(0.26458333,0,0,0.26458333,46.355842,50.799734)">
</g>
    <g
       id="g909"
       transform="matrix(0.26458333,0,0,0.26458333,46.355842,50.799734)">
</g>
    <g
       id="g911"
       transform="matrix(0.26458333,0,0,0.26458333,46.355842,50.799734)">
</g>
    <g
       id="g913"
       transform="matrix(0.26458333,0,0,0.26458333,46.355842,50.799734)">
</g>
    <g
       id="g915"
       transform="matrix(0.26458333,0,0,0.26458333,46.355842,50.799734)">
</g>
    <g
       id="g2584"
       transform="matrix(0.19604999,0,0,0.19042411,50.633665,57.750636)">
</g>
    <g
       id="g2586"
       transform="matrix(0.19604999,0,0,0.19042411,50.633665,57.750636)">
</g>
    <g
       id="g2588"
       transform="matrix(0.19604999,0,0,0.19042411,50.633665,57.750636)">
</g>
    <g
       id="g2590"
       transform="matrix(0.19604999,0,0,0.19042411,50.633665,57.750636)">
</g>
    <g
       id="g2592"
       transform="matrix(0.19604999,0,0,0.19042411,50.633665,57.750636)">
</g>
    <g
       id="g2594"
       transform="matrix(0.19604999,0,0,0.19042411,50.633665,57.750636)">
</g>
    <g
       id="g2596"
       transform="matrix(0.19604999,0,0,0.19042411,50.633665,57.750636)">
</g>
    <g
       id="g2598"
       transform="matrix(0.19604999,0,0,0.19042411,50.633665,57.750636)">
</g>
    <g
       id="g2600"
       transform="matrix(0.19604999,0,0,0.19042411,50.633665,57.750636)">
</g>
    <g
       id="g2602"
       transform="matrix(0.19604999,0,0,0.19042411,50.633665,57.750636)">
</g>
    <g
       id="g2604"
       transform="matrix(0.19604999,0,0,0.19042411,50.633665,57.750636)">
</g>
    <g
       id="g2606"
       transform="matrix(0.19604999,0,0,0.19042411,50.633665,57.750636)">
</g>
    <g
       id="g2608"
       transform="matrix(0.19604999,0,0,0.19042411,50.633665,57.750636)">
</g>
    <g
       id="g2610"
       transform="matrix(0.19604999,0,0,0.19042411,50.633665,57.750636)">
</g>
    <g
       id="g2612"
       transform="matrix(0.19604999,0,0,0.19042411,50.633665,57.750636)">
</g>
    <g
       id="g3342">
      <path
         id="XMLID_348_"
         d="m 76.192022,94.718008 c 3.116407,0 5.998661,-1.07055 8.33581,-2.877659 3.567788,5.277577 9.423512,8.730241 16.035608,8.730241 6.61179,0 12.46751,-3.452664 16.03562,-8.730241 2.33714,1.807109 5.2194,2.877659 8.33581,2.877659 7.77785,0 14.10564,-6.655741 14.10564,-14.836364 0,-8.181282 -6.32779,-14.837023 -14.10564,-14.837023 -3.11673,0 -5.99898,1.07088 -8.33613,2.877989 -3.5681,-5.277247 -9.42351,-8.729911 -16.0353,-8.729911 -6.611783,0 -12.467193,3.452664 -16.035295,8.729911 -2.337149,-1.807109 -5.219402,-2.877989 -8.336123,-2.877989 -7.777853,0 -14.105646,6.655741 -14.105646,14.837023 0,8.180953 6.327793,14.836364 14.105646,14.836364 z M 124.93487,74.93575 c 2.59261,0 4.70188,2.21891 4.70188,4.945894 0,2.726984 -2.10927,4.945235 -4.70188,4.945235 -2.59262,0 -4.70189,-2.21858 -4.70189,-4.945235 0,-2.726984 2.10927,-4.945894 4.70189,-4.945894 z m -24.37143,-5.851922 c 5.66076,0 10.26578,4.843686 10.26578,10.797816 0,5.95413 -4.60502,10.797816 -10.26578,10.797816 -5.660749,0 -10.265772,-4.843686 -10.265772,-10.797816 0,-5.95413 4.605023,-10.797816 10.265772,-10.797816 z M 76.192022,74.93575 c 2.592618,0 4.701882,2.21891 4.701882,4.945894 0,2.726984 -2.109264,4.945235 -4.701882,4.945235 -2.592618,0 -4.701882,-2.21858 -4.701882,-4.945235 0,-2.726984 2.109264,-4.945894 4.701882,-4.945894 z"
         style="stroke-width:0.321479;fill:#7b08a3;fill-opacity:1" />
      <path
         id="XMLID_440_"
         d="m 124.93487,104.60914 c -6.15728,0 -12.01457,2.43585 -16.48292,6.76949 -2.53996,-0.59875 -5.17928,-0.91691 -7.88851,-0.91691 -2.709221,0 -5.348544,0.31816 -7.888187,0.91691 -4.468355,-4.33364 -10.32596,-6.76949 -16.483231,-6.76949 -13.41635,0 -24.331299,11.48096 -24.331299,25.59263 0,2.73127 2.105189,4.94557 4.701882,4.94557 h 10.218757 c -1.463539,4.1213 -2.26568,8.57857 -2.26568,13.23004 0,2.73127 2.105189,4.94557 4.701882,4.94557 h 62.691756 c 2.5967,0 4.70189,-2.2143 4.70189,-4.94557 0,-4.65147 -0.80215,-9.10874 -2.266,-13.23004 h 10.21939 c 2.59669,0 4.70188,-2.2143 4.70188,-4.94557 0,-14.11167 -10.91526,-25.59263 -24.33161,-25.59263 z m -62.911813,20.64707 c 1.974164,-6.24262 7.579748,-10.75594 14.168965,-10.75594 2.074157,0 4.091264,0.45565 5.944433,1.30233 -3.91322,2.45827 -7.348415,5.67388 -10.121585,9.45361 z m 12.311722,18.17561 c 2.227438,-13.10212 13.141133,-23.07897 26.228661,-23.07897 13.08722,0 24.00123,9.97685 26.22867,23.07897 z m 54.777551,-18.17561 c -2.77348,-3.77973 -6.20836,-6.99534 -10.12158,-9.45361 1.85316,-0.84635 3.87027,-1.30233 5.94443,-1.30233 6.58922,0 12.19511,4.51332 14.16928,10.75594 z"
         style="stroke-width:0.321479;fill:#7b08a3;fill-opacity:1" />
    </g>
    <g
       id="g3067"
       transform="matrix(0.3134588,0,0,0.3297043,51.860723,55.030842)">
</g>
    <g
       id="g3069"
       transform="matrix(0.3134588,0,0,0.3297043,51.860723,55.030842)">
</g>
    <g
       id="g3071"
       transform="matrix(0.3134588,0,0,0.3297043,51.860723,55.030842)">
</g>
    <g
       id="g3073"
       transform="matrix(0.3134588,0,0,0.3297043,51.860723,55.030842)">
</g>
    <g
       id="g3075"
       transform="matrix(0.3134588,0,0,0.3297043,51.860723,55.030842)">
</g>
    <g
       id="g3077"
       transform="matrix(0.3134588,0,0,0.3297043,51.860723,55.030842)">
</g>
    <g
       id="g3079"
       transform="matrix(0.3134588,0,0,0.3297043,51.860723,55.030842)">
</g>
    <g
       id="g3081"
       transform="matrix(0.3134588,0,0,0.3297043,51.860723,55.030842)">
</g>
    <g
       id="g3083"
       transform="matrix(0.3134588,0,0,0.3297043,51.860723,55.030842)">
</g>
    <g
       id="g3085"
       transform="matrix(0.3134588,0,0,0.3297043,51.860723,55.030842)">
</g>
    <g
       id="g3087"
       transform="matrix(0.3134588,0,0,0.3297043,51.860723,55.030842)">
</g>
    <g
       id="g3089"
       transform="matrix(0.3134588,0,0,0.3297043,51.860723,55.030842)">
</g>
    <g
       id="g3091"
       transform="matrix(0.3134588,0,0,0.3297043,51.860723,55.030842)">
</g>
    <g
       id="g3093"
       transform="matrix(0.3134588,0,0,0.3297043,51.860723,55.030842)">
</g>
    <g
       id="g3095"
       transform="matrix(0.3134588,0,0,0.3297043,51.860723,55.030842)">
</g>
  </g>
</svg>
