<?xml version="1.0" encoding="UTF-8" standalone="no"?>
<!-- Created with Inkscape (http://www.inkscape.org/) -->

<svg
   width="112.44791mm"
   height="101.86458mm"
   viewBox="0 0 112.44791 101.86458"
   version="1.1"
   id="svg5"
   inkscape:version="1.1.1 (3bf5ae0d25, 2021-09-20)"
   sodipodi:docname="Calendar.svg"
   xmlns:inkscape="http://www.inkscape.org/namespaces/inkscape"
   xmlns:sodipodi="http://sodipodi.sourceforge.net/DTD/sodipodi-0.dtd"
   xmlns="http://www.w3.org/2000/svg"
   xmlns:svg="http://www.w3.org/2000/svg">
  <sodipodi:namedview
     id="namedview7"
     pagecolor="#ffffff"
     bordercolor="#666666"
     borderopacity="1.0"
     inkscape:pageshadow="2"
     inkscape:pageopacity="0.0"
     inkscape:pagecheckerboard="0"
     inkscape:document-units="mm"
     showgrid="false"
     fit-margin-top="0"
     fit-margin-left="0"
     fit-margin-right="0"
     fit-margin-bottom="0"
     inkscape:zoom="1.0104048"
     inkscape:cx="83.629848"
     inkscape:cy="200.41473"
     inkscape:window-width="1920"
     inkscape:window-height="991"
     inkscape:window-x="-9"
     inkscape:window-y="-9"
     inkscape:window-maximized="1"
     inkscape:current-layer="layer1" />
  <defs
     id="defs2" />
  <g
     inkscape:label="Layer 1"
     inkscape:groupmode="layer"
     id="layer1"
     transform="translate(-46.355842,-56.091401)">
    <g
       id="g887"
       transform="matrix(0.26458333,0,0,0.26458333,46.355842,50.799734)">
</g>
    <g
       id="g889"
       transform="matrix(0.26458333,0,0,0.26458333,46.355842,50.799734)">
</g>
    <g
       id="g891"
       transform="matrix(0.26458333,0,0,0.26458333,46.355842,50.799734)">
</g>
    <g
       id="g893"
       transform="matrix(0.26458333,0,0,0.26458333,46.355842,50.799734)">
</g>
    <g
       id="g895"
       transform="matrix(0.26458333,0,0,0.26458333,46.355842,50.799734)">
</g>
    <g
       id="g897"
       transform="matrix(0.26458333,0,0,0.26458333,46.355842,50.799734)">
</g>
    <g
       id="g899"
       transform="matrix(0.26458333,0,0,0.26458333,46.355842,50.799734)">
</g>
    <g
       id="g901"
       transform="matrix(0.26458333,0,0,0.26458333,46.355842,50.799734)">
</g>
    <g
       id="g903"
       transform="matrix(0.26458333,0,0,0.26458333,46.355842,50.799734)">
</g>
    <g
       id="g905"
       transform="matrix(0.26458333,0,0,0.26458333,46.355842,50.799734)">
</g>
    <g
       id="g907"
       transform="matrix(0.26458333,0,0,0.26458333,46.355842,50.799734)">
</g>
    <g
       id="g909"
       transform="matrix(0.26458333,0,0,0.26458333,46.355842,50.799734)">
</g>
    <g
       id="g911"
       transform="matrix(0.26458333,0,0,0.26458333,46.355842,50.799734)">
</g>
    <g
       id="g913"
       transform="matrix(0.26458333,0,0,0.26458333,46.355842,50.799734)">
</g>
    <g
       id="g915"
       transform="matrix(0.26458333,0,0,0.26458333,46.355842,50.799734)">
</g>
    <g
       id="g2417">
      <path
         style="fill:#7b08a3;fill-opacity:1;stroke:#7b08a3;stroke-width:0.143507"
         d="M 46.355842,110.42709 V 62.899728 h 17.544536 17.544535 v -3.404163 -3.404164 h 3.796953 3.796951 v 3.404164 3.404163 h 13.616653 13.61666 v -3.404163 -3.404164 h 3.79695 3.79695 v 3.404164 3.404163 h 17.41361 17.41361 v 33.05879 33.058792 l -14.46681,14.46857 -14.46681,14.46857 H 88.057731 46.355842 Z m 78.295768,26.44773 v -13.22386 h 13.22387 13.22386 V 107.67757 91.70419 H 102.65547 54.211605 v 29.19725 29.19725 h 35.220002 35.220003 z m 20.68684,-5.4316 c 0,-0.1091 -2.94591,-0.19836 -6.54647,-0.19836 h -6.54647 v 6.7409 6.7409 l 6.54647,-6.54254 c 3.60056,-3.5984 6.54647,-6.6318 6.54647,-6.7409 z m 5.76089,-54.141261 v -6.808327 h -13.61665 -13.61666 v 2.618587 2.618588 h -3.79695 -3.79695 V 73.112219 70.493632 H 102.65547 89.038817 V 73.766866 77.0401 H 85.241866 81.444913 V 73.766866 70.493632 H 67.828259 54.211605 v 6.808327 6.808327 h 48.443865 48.44387 z"
         id="path983" />
      <path
         style="fill:none;fill-opacity:1;stroke:#7b08a3;stroke-width:1.9;stroke-miterlimit:4;stroke-dasharray:none"
         d="m 72.279857,108.98686 v -6.54646 h 6.546469 6.546469 v 6.54646 6.54647 h -6.546469 -6.546469 z"
         id="path1215" />
      <path
         style="fill:none;fill-opacity:1;stroke:#7b08a3;stroke-width:1.9;stroke-miterlimit:4;stroke-dasharray:none"
         d="m 96.109004,108.98687 v -6.54647 h 6.415536 6.41554 v 6.54647 6.54646 h -6.41554 -6.415536 z"
         id="path1402" />
      <path
         style="fill:none;fill-opacity:1;stroke:#7b08a3;stroke-width:1.9;stroke-miterlimit:4;stroke-dasharray:none"
         d="m 119.93815,108.98687 v -6.54647 h 6.41554 6.41554 v 6.54647 6.54646 h -6.41554 -6.41554 z"
         id="path1441" />
      <path
         style="fill:none;fill-opacity:1;stroke:#7b08a3;stroke-width:1.9;stroke-miterlimit:4;stroke-dasharray:none"
         d="m 96.109004,132.81601 v -6.54647 h 6.415536 6.41554 v 6.54647 6.54647 h -6.41554 -6.415536 z"
         id="path1480" />
      <path
         style="fill:none;fill-opacity:1;stroke:#7b08a3;stroke-width:1.9;stroke-miterlimit:4;stroke-dasharray:none"
         d="m 72.279857,132.81601 v -6.54647 h 6.546469 6.546469 v 6.54647 6.54647 h -6.546469 -6.546469 z"
         id="path1519" />
    </g>
  </g>
</svg>
