<?xml version="1.0" encoding="UTF-8" standalone="no"?>
<!-- Created with Inkscape (http://www.inkscape.org/) -->

<svg
   width="54.686897"
   height="55.303341"
   viewBox="0 0 14.469242 14.632343"
   version="1.1"
   id="svg5"
   sodipodi:docname="ExploreEmpty.svg"
   inkscape:version="1.1.1 (3bf5ae0d25, 2021-09-20)"
   xmlns:inkscape="http://www.inkscape.org/namespaces/inkscape"
   xmlns:sodipodi="http://sodipodi.sourceforge.net/DTD/sodipodi-0.dtd"
   xmlns="http://www.w3.org/2000/svg"
   xmlns:svg="http://www.w3.org/2000/svg">
  <sodipodi:namedview
     id="namedview7"
     pagecolor="#ffffff"
     bordercolor="#666666"
     borderopacity="1.0"
     inkscape:pageshadow="2"
     inkscape:pageopacity="0.0"
     inkscape:pagecheckerboard="0"
     inkscape:document-units="mm"
     showgrid="false"
     fit-margin-top="0"
     fit-margin-left="0"
     fit-margin-right="0"
     fit-margin-bottom="0"
     inkscape:zoom="11.431425"
     inkscape:cx="16.052242"
     inkscape:cy="27.949271"
     inkscape:window-width="1920"
     inkscape:window-height="991"
     inkscape:window-x="-9"
     inkscape:window-y="-9"
     inkscape:window-maximized="1"
     inkscape:current-layer="layer1"
     units="px"
     width="320px" />
  <defs
     id="defs2">
    <linearGradient
       id="linearGradient14655"
       inkscape:swatch="solid">
      <stop
         style="stop-color:#000000;stop-opacity:1;"
         offset="0"
         id="stop14653" />
    </linearGradient>
    <linearGradient
       id="linearGradient4504"
       inkscape:swatch="solid">
      <stop
         style="stop-color:#000000;stop-opacity:1;"
         offset="0"
         id="stop4502" />
    </linearGradient>
    <inkscape:perspective
       sodipodi:type="inkscape:persp3d"
       inkscape:vp_x="0 : -67.928791 : 1"
       inkscape:vp_y="0 : 1000 : 0"
       inkscape:vp_z="85.278533 : -67.928791 : 1"
       inkscape:persp3d-origin="42.639267 : -82.110721 : 1"
       id="perspective1934" />
    <style
       id="style4895">.cls-1{fill:none;}.cls-2{fill:#3d3d63;}</style>
  </defs>
  <g
     inkscape:label="Layer 1"
     inkscape:groupmode="layer"
     id="layer1"
     transform="translate(-99.382243,-128.33287)">
    <g
       id="g17327"
       style="fill:#7b08a3;fill-opacity:1">
      <g
         id="g17246"
         transform="matrix(0.02826026,0,0,0.0285788,99.382227,128.33287)"
         style="fill:#7b08a3;fill-opacity:1">
        <path
           d="M 389.312,37.38 C 268.765,-36.129 110.888,2.141 37.38,122.688 -36.128,243.235 2.141,401.112 122.688,474.62 c 6.716,4.095 13.551,7.838 20.478,11.246 0.112,0.054 0.225,0.111 0.339,0.164 35.803,17.544 74.127,25.97 112.074,25.97 86.412,0 170.856,-43.667 219.042,-122.688 C 548.129,268.764 509.859,110.889 389.312,37.38 Z m -195.436,9.496 -3.125,12.417 -66.766,37.576 -13.615,-3.426 c 23.811,-21.389 52.174,-37.3 83.506,-46.567 z m -61.52,275.691 -3.592,3.975 c -11.173,12.364 -15.968,28.877 -13.158,45.302 l 10.121,59.149 C 84.858,400.678 56.122,357.453 43.987,307.392 34.823,269.586 35.868,230.913 46.591,194.575 l 62.856,35.972 c 6.232,3.567 9.361,10.92 7.608,17.884 -4.529,17.997 0.38,36.791 13.131,50.272 l 1.921,2.031 c 5.729,6.056 5.837,15.647 0.249,21.833 z m 133.016,151.443 -3.917,-23.904 3.156,-1.399 c 11.388,-5.047 24.689,-1.207 31.63,9.135 l 7.403,11.03 c -12.711,2.852 -25.508,4.563 -38.272,5.138 z M 442.256,369.576 c -24.103,39.527 -59.297,69.701 -101.141,87.325 -0.323,-0.622 -0.677,-1.234 -1.078,-1.831 l -12.32,-18.355 c -17.219,-25.655 -50.22,-35.186 -78.469,-22.664 l -16.548,7.336 c -7.887,3.498 -12.417,11.879 -11.022,20.393 l 4.999,30.501 c -19.979,-2.703 -39.552,-8.216 -58.241,-16.451 l -15.465,-90.381 c -0.838,-4.893 0.591,-9.812 3.92,-13.494 l 3.592,-3.975 c 18.763,-20.766 18.397,-52.961 -0.833,-73.294 l -1.921,-2.031 c -3.798,-4.016 -5.26,-9.613 -3.912,-14.975 5.882,-23.375 -4.621,-48.062 -25.54,-60.035 L 60.63,158.932 c 2.791,-5.596 5.82,-11.107 9.114,-16.509 3.627,-5.946 7.511,-11.676 11.624,-17.19 l 40.698,10.241 c 1.525,0.384 3.078,0.574 4.625,0.574 3.231,0 6.437,-0.826 9.296,-2.436 l 80.452,-45.278 c 4.531,-2.55 7.817,-6.849 9.084,-11.892 l 8.854,-35.185 c 0.201,-0.8 0.33,-1.6 0.425,-2.398 7.205,-0.718 14.41,-1.097 21.595,-1.097 39.58,0 78.524,10.851 113.175,31.982 4.035,2.46 7.962,5.048 11.799,7.736 -0.024,0.027 -0.051,0.048 -0.075,0.073 l -30.875,33.747 -81.369,3.159 c -6.295,0.244 -12.057,3.601 -15.375,8.955 l -35.446,57.199 c -4.117,6.643 -3.735,15.13 0.962,21.376 l 22.436,29.837 c 4.645,6.178 7.181,13.836 7.141,21.565 l -0.201,38.901 c -0.08,15.386 6.609,29.913 18.349,39.858 9.458,8.013 21.311,12.3 33.489,12.3 2.938,0 5.897,-0.25 8.844,-0.757 l 43.21,-7.435 c 15.918,-2.738 30.704,-10.795 41.634,-22.685 6.523,-7.095 15.421,-11.173 25.053,-11.48 9.622,-0.322 18.772,3.192 25.736,9.856 l 12.153,11.631 c 1.586,1.518 3.373,2.685 5.263,3.544 -5.088,14.662 -11.772,28.887 -20.044,42.452 z m 29.98,-83.922 -1.141,-1.092 c -14.381,-13.764 -33.255,-20.996 -53.157,-20.359 -19.898,0.636 -38.276,9.056 -51.749,23.713 -5.292,5.756 -12.45,9.656 -20.156,10.982 l -43.21,7.435 c -5.595,0.962 -9.545,-1.535 -11.404,-3.108 -1.859,-1.574 -4.972,-5.063 -4.943,-10.737 l 0.201,-38.9 c 0.082,-15.964 -5.157,-31.783 -14.75,-44.543 l -14.646,-19.478 23.312,-37.619 79.207,-3.074 c 5.059,-0.196 9.831,-2.408 13.249,-6.145 l 36.221,-39.585 c 0.403,-0.44 0.773,-0.897 1.127,-1.363 28.089,28.02 48.032,63.29 57.616,102.828 6.535,26.961 7.875,54.363 4.223,81.045 z"
           id="path17244"
           style="fill:#7b08a3;fill-opacity:1" />
      </g>
    </g>
    <g
       id="g17250"
       transform="matrix(0.02826026,0,0,0.0285788,99.382227,128.33287)" />
    <g
       id="g17252"
       transform="matrix(0.02826026,0,0,0.0285788,99.382227,128.33287)" />
    <g
       id="g17254"
       transform="matrix(0.02826026,0,0,0.0285788,99.382227,128.33287)" />
    <g
       id="g17256"
       transform="matrix(0.02826026,0,0,0.0285788,99.382227,128.33287)" />
    <g
       id="g17258"
       transform="matrix(0.02826026,0,0,0.0285788,99.382227,128.33287)" />
    <g
       id="g17260"
       transform="matrix(0.02826026,0,0,0.0285788,99.382227,128.33287)" />
    <g
       id="g17262"
       transform="matrix(0.02826026,0,0,0.0285788,99.382227,128.33287)" />
    <g
       id="g17264"
       transform="matrix(0.02826026,0,0,0.0285788,99.382227,128.33287)" />
    <g
       id="g17266"
       transform="matrix(0.02826026,0,0,0.0285788,99.382227,128.33287)" />
    <g
       id="g17268"
       transform="matrix(0.02826026,0,0,0.0285788,99.382227,128.33287)" />
    <g
       id="g17270"
       transform="matrix(0.02826026,0,0,0.0285788,99.382227,128.33287)" />
    <g
       id="g17272"
       transform="matrix(0.02826026,0,0,0.0285788,99.382227,128.33287)" />
    <g
       id="g17274"
       transform="matrix(0.02826026,0,0,0.0285788,99.382227,128.33287)" />
    <g
       id="g17276"
       transform="matrix(0.02826026,0,0,0.0285788,99.382227,128.33287)" />
    <g
       id="g17278"
       transform="matrix(0.02826026,0,0,0.0285788,99.382227,128.33287)" />
    <path
       style="fill:#ffffff;stroke:#7b08a3;stroke-width:0.0479408"
       d="M 12.421898,45.668186 C 8.0942114,42.050868 5.2255069,36.861241 4.3197513,31.011007 4.1152614,29.690216 4.0870971,25.77972 4.2731286,24.537623 4.4238781,23.531098 4.7816691,21.804828 4.9217867,21.407978 l 0.1082074,-0.306472 3.340359,1.936754 c 1.8371979,1.065215 3.4603119,2.051704 3.6069209,2.192198 0.146609,0.140493 0.332881,0.429096 0.413937,0.641339 0.132566,0.347118 0.135317,0.457701 0.02738,1.100468 -0.154029,0.917216 -0.138584,1.981542 0.03906,2.69151 0.203357,0.812738 0.761289,1.875548 1.327195,2.528187 0.571228,0.658777 0.736532,0.992542 0.736532,1.487129 0,0.49264 -0.16504,0.830712 -0.71129,1.457021 -1.046456,1.199826 -1.485268,2.269072 -1.538129,3.747929 -0.03123,0.873725 0.01736,1.264083 0.528134,4.242691 0.309391,1.804237 0.557534,3.286905 0.551429,3.294817 -0.0061,0.0079 -0.424433,-0.3311 -0.92962,-0.753363 z"
       id="path21521"
       transform="matrix(0.26458333,0,0,0.26458333,99.382243,128.33287)" />
    <path
       style="fill:#ffffff;stroke:#7b08a3;stroke-width:0.0479408"
       d="M 31.535876,32.943256 C 31.196369,32.792361 30.922744,32.491089 30.75025,32.078253 30.634101,31.800269 30.613842,31.324616 30.621761,29.06145 30.629155,26.948157 30.60261,26.243959 30.4974,25.762317 30.176713,24.294237 29.749873,23.44367 28.46781,21.717939 l -0.924981,-1.245078 1.139784,-1.860397 c 0.626882,-1.023218 1.190713,-1.92743 1.252959,-2.009359 0.100645,-0.13247 0.601181,-0.168559 4.52076,-0.325956 4.096879,-0.164516 4.434373,-0.18996 4.787579,-0.360944 0.283219,-0.137104 0.90795,-0.766997 2.45308,-2.473346 1.140198,-1.259167 2.089981,-2.309076 2.110631,-2.333133 0.05236,-0.061 0.878646,0.847546 1.6713,1.837688 2.746087,3.430263 4.525255,7.807181 4.994389,12.286649 0.153679,1.467386 0.125591,4.4202 -0.05021,5.278342 -0.03956,0.193126 -0.06017,0.185035 -0.51214,-0.201094 -0.949161,-0.810893 -2.375886,-1.471832 -3.672951,-1.701516 -0.759768,-0.134539 -2.145367,-0.112213 -2.91814,0.04702 -1.562063,0.321869 -2.77621,0.988789 -4.121962,2.264156 -1.1545,1.094118 -1.342952,1.166376 -4.44231,1.703329 -1.404609,0.243344 -2.644612,0.440903 -2.755562,0.43902 -0.110949,-0.0019 -0.319821,-0.05591 -0.46416,-0.120064 z"
       id="path21560"
       transform="matrix(0.26458333,0,0,0.26458333,99.382243,128.33287)" />
    <path
       style="fill:#ffffff;stroke:#7b08a3;stroke-width:0.0479408"
       d="M 12.529185,10.253198 C 12.227346,10.17779 11.993999,10.073945 12.010638,10.022431 12.065308,9.8531694 13.582436,8.6627344 14.652591,7.9493866 15.89347,7.122238 18.090223,6.0200203 19.529734,5.5022878 20.09519,5.2989164 20.574347,5.1490322 20.594527,5.169212 c 0.02018,0.02018 -0.0252,0.2953473 -0.100838,0.6114835 l -0.137528,0.5747932 -3.561678,2.027206 c -1.958922,1.1149634 -3.596512,2.0227973 -3.639088,2.0174083 -0.04258,-0.0054 -0.32437,-0.0715 -0.62621,-0.146905 z"
       id="path21599"
       transform="matrix(0.26458333,0,0,0.26458333,99.382243,128.33287)" />
    <path
       style="fill:#ffffff;stroke:#7b08a3;stroke-width:0.0479408"
       d="m 28.182253,49.943358 c -0.105988,-0.67602 -0.170553,-1.264971 -0.143477,-1.308781 0.08268,-0.133786 0.923199,-0.346634 1.368824,-0.346634 0.494596,0 1.1848,0.24339 1.610089,0.567774 0.166385,0.126908 0.534381,0.575572 0.81777,0.997031 l 0.515252,0.76629 -0.75733,0.142795 c -0.714664,0.134751 -1.626381,0.256035 -2.73144,0.363357 l -0.486981,0.04729 z"
       id="path21638"
       transform="matrix(0.26458333,0,0,0.26458333,99.382243,128.33287)" />
    <path
       style="fill:#ffffff;stroke:#7b08a3;stroke-width:0.0479408"
       d="m 22.656843,50.695733 c -1.136799,-0.249415 -2.154427,-0.547177 -3.236692,-0.947066 -1.492407,-0.551436 -1.376363,-0.471093 -1.47069,-1.018229 -0.0461,-0.267428 -0.429521,-2.53787 -0.852037,-5.045424 -0.892436,-5.296443 -0.890969,-4.946927 -0.02495,-5.945744 1.030601,-1.188633 1.463171,-2.247981 1.532895,-3.754006 0.07788,-1.68204 -0.384999,-3.041381 -1.456393,-4.277054 -0.646692,-0.745851 -0.75008,-1.030879 -0.650983,-1.794661 0.04115,-0.317143 0.07565,-1.029324 0.07667,-1.582624 0.0015,-0.809111 -0.03786,-1.134403 -0.201094,-1.662085 -0.376084,-1.215787 -1.271272,-2.45688 -2.22653,-3.086876 -0.25119,-0.16566 -1.972268,-1.176892 -3.824618,-2.247182 -1.8523504,-1.07029 -3.4587208,-2.00305 -3.5697125,-2.0728 l -0.201803,-0.126819 0.4503515,-0.84286 c 0.3280992,-0.614057 1.4695385,-2.436778 1.6921629,-2.70215 0.00586,-0.007 0.9947841,0.238539 2.1976091,0.545609 2.550843,0.651207 2.902803,0.680412 3.674082,0.304863 0.288678,-0.140563 2.414397,-1.334497 4.723821,-2.653188 3.49411,-1.9951519 4.244632,-2.4573087 4.471088,-2.7532069 0.230654,-0.3013849 0.356772,-0.6958276 0.827375,-2.5876745 l 0.555238,-2.2320868 1.09524,-0.063171 c 4.058183,-0.2340672 8.528257,0.8082177 12.183233,2.840758 1.040193,0.5784537 2.168757,1.3039874 2.168757,1.394255 0,0.046235 -2.57438,2.9489292 -3.091061,3.4852692 -0.0723,0.07505 -1.39637,0.158176 -4.559612,0.286246 -2.565246,0.103859 -4.601334,0.223507 -4.796001,0.281831 -0.623287,0.186741 -0.952195,0.617855 -2.889612,3.787541 -1.029288,1.683955 -1.955896,3.227469 -2.059129,3.430033 -0.211545,0.415096 -0.25352,1.210069 -0.08884,1.68248 0.05437,0.15597 0.740904,1.147232 1.525628,2.202802 0.886348,1.192271 1.502235,2.108684 1.626004,2.419425 0.189753,0.476403 0.201868,0.647979 0.254613,3.605679 0.06014,3.372294 0.08306,3.547508 0.600251,4.588637 0.599765,1.207355 1.666605,2.187257 2.906605,2.669746 0.813153,0.316402 1.782927,0.477933 2.450564,0.408181 0.95555,-0.09983 5.604018,-0.942705 6.181518,-1.12085 1.223026,-0.377276 2.202052,-0.982013 3.370263,-2.081786 1.195981,-1.125913 2.039327,-1.450234 3.375756,-1.298195 0.891069,0.101372 1.540955,0.476133 2.617776,1.509551 0.511191,0.490588 1.01489,0.949757 1.119331,1.020376 l 0.189895,0.128399 -0.358094,0.91514 c -0.492894,1.259637 -1.404541,3.023027 -2.175576,4.208195 -1.786475,2.746016 -3.981318,4.970094 -6.681412,6.770412 -1.06574,0.710594 -3.374421,1.969935 -3.596906,1.962042 -0.04245,-0.0015 -0.470828,-0.59559 -0.951958,-1.320187 -1.5397,-2.318841 -2.828214,-3.287074 -4.941005,-3.712844 -1.544445,-0.311236 -2.892478,-0.06646 -5.031505,0.913631 -1.179614,0.540493 -1.489546,0.779526 -1.757834,1.355717 -0.301232,0.646943 -0.293241,0.767559 0.274565,4.144202 0.04607,0.273967 0.03733,0.284031 -0.240461,0.276789 -0.158547,-0.0041 -0.701602,-0.0982 -1.206788,-0.20904 z"
       id="path21677"
       transform="matrix(0.26458333,0,0,0.26458333,99.382243,128.33287)" />
  </g>
</svg>
