<?xml version="1.0" encoding="UTF-8" standalone="no"?>
<!-- Created with Inkscape (http://www.inkscape.org/) -->

<svg
   width="129.75166mm"
   height="115.35833mm"
   viewBox="0 0 129.75166 115.35833"
   version="1.1"
   id="svg5"
   xmlns="http://www.w3.org/2000/svg"
   xmlns:svg="http://www.w3.org/2000/svg">
  <defs
     id="defs2" />
  <g
     id="layer1"
     transform="translate(-40.111075,-91.005997)">
    <g
       id="g924"
       transform="matrix(0.26458333,0,0,0.26458333,40.111075,83.80933)">
      <g
         id="g869"
         style="fill:#7b08a3;fill-opacity:1;stroke-width:1.00157;stroke-miterlimit:4;stroke-dasharray:none">
	<g
   id="g867"
   style="fill:#7b08a3;fill-opacity:1;stroke-width:1.00157;stroke-miterlimit:4;stroke-dasharray:none">
		<path
   d="m 222.5,453.7 c 6.1,6.1 14.3,9.5 22.9,9.5 8.5,0 16.9,-3.5 22.9,-9.5 L 448,274 c 27.3,-27.3 42.3,-63.6 42.4,-102.1 0,-38.6 -15,-74.9 -42.3,-102.2 C 420.8,42.4 384.6,27.4 346,27.4 c -37.9,0 -73.6,14.5 -100.7,40.9 -27.2,-26.5 -63,-41.1 -101,-41.1 -38.5,0 -74.7,15 -102,42.2 C 15,96.7 0,133 0,171.6 0,210.1 15.1,246.4 42.4,273.7 Z M 59.7,86.8 c 22.6,-22.6 52.7,-35.1 84.7,-35.1 32,0 62.2,12.5 84.9,35.2 l 7.4,7.4 c 2.3,2.3 5.4,3.6 8.7,3.6 v 0 c 3.2,0 6.4,-1.3 8.7,-3.6 l 7.2,-7.2 c 22.7,-22.7 52.8,-35.2 84.9,-35.2 32,0 62.1,12.5 84.7,35.1 22.7,22.7 35.1,52.8 35.1,84.8 0,32 -12.5,62.1 -35.2,84.8 L 251,436.4 c -2.9,2.9 -8.2,2.9 -11.2,0 l -180,-180 C 37.1,233.7 24.6,203.6 24.6,171.6 c 0,-32 12.5,-62.1 35.1,-84.8 z"
   id="path865"
   style="fill:#7b08a3;fill-opacity:1;stroke-width:1.00157;stroke-miterlimit:4;stroke-dasharray:none" />

	</g>

</g>
      <g
         id="g871">
</g>
      <g
         id="g873">
</g>
      <g
         id="g875">
</g>
      <g
         id="g877">
</g>
      <g
         id="g879">
</g>
      <g
         id="g881">
</g>
      <g
         id="g883">
</g>
      <g
         id="g885">
</g>
      <g
         id="g887">
</g>
      <g
         id="g889">
</g>
      <g
         id="g891">
</g>
      <g
         id="g893">
</g>
      <g
         id="g895">
</g>
      <g
         id="g897">
</g>
      <g
         id="g899">
</g>
    </g>
  </g>
</svg>
