<?xml version="1.0" encoding="UTF-8" standalone="no"?>
<!-- Created with Inkscape (http://www.inkscape.org/) -->

<svg
   width="129.75166mm"
   height="115.35833mm"
   viewBox="0 0 129.75166 115.35833"
   version="1.1"
   id="svg5"
   xmlns="http://www.w3.org/2000/svg"
   >
  <g
     id="layer1"
     transform="translate(-40.111075,-91.005997)">
    <g
       id="g924"
       transform="matrix(0.26458333,0,0,0.26458333,40.111075,83.80933)">
      <g
         id="g869"
         style="fill:#7b08a3;fill-opacity:1;stroke-width:1.00157;stroke-miterlimit:4;stroke-dasharray:none">
	<g
   id="g867"
   style="fill:#7b08a3;fill-opacity:1;stroke-width:1.00157;stroke-miterlimit:4;stroke-dasharray:none">
		<path
   d="m 222.5,453.7 c 6.1,6.1 14.3,9.5 22.9,9.5 8.5,0 16.9,-3.5 22.9,-9.5 L 448,274 c 27.3,-27.3 42.3,-63.6 42.4,-102.1 0,-38.6 -15,-74.9 -42.3,-102.2 C 420.8,42.4 384.6,27.4 346,27.4 c -37.9,0 -73.6,14.5 -100.7,40.9 -27.2,-26.5 -63,-41.1 -101,-41.1 -38.5,0 -74.7,15 -102,42.2 C 15,96.7 0,133 0,171.6 0,210.1 15.1,246.4 42.4,273.7 Z M 59.7,86.8 c 22.6,-22.6 52.7,-35.1 84.7,-35.1 32,0 62.2,12.5 84.9,35.2 l 7.4,7.4 c 2.3,2.3 5.4,3.6 8.7,3.6 v 0 c 3.2,0 6.4,-1.3 8.7,-3.6 l 7.2,-7.2 c 22.7,-22.7 52.8,-35.2 84.9,-35.2 32,0 62.1,12.5 84.7,35.1 22.7,22.7 35.1,52.8 35.1,84.8 0,32 -12.5,62.1 -35.2,84.8 L 251,436.4 c -2.9,2.9 -8.2,2.9 -11.2,0 l -180,-180 C 37.1,233.7 24.6,203.6 24.6,171.6 c 0,-32 12.5,-62.1 35.1,-84.8 z"
   id="path865"
   style="fill:#7b08a3;fill-opacity:1;stroke-width:1.00157;stroke-miterlimit:4;stroke-dasharray:none" />
	</g>
</g>
      <path
         style="fill:#7b08a3;fill-opacity:1;stroke-width:1.48043;stroke-miterlimit:4;stroke-dasharray:none"
         d="M 135.99329,345.83498 C 74.138639,285.07843 32.759871,243.30721 29.098706,237.92655 9.9052245,209.7187 2.7665229,178.17574 8.4106466,146.51458 13.237489,119.43803 25.700684,96.725433 46.328437,77.414194 86.542833,39.766378 143.831,31.992028 192.93653,57.518591 c 12.37232,6.431516 19.9661,12.016553 34.03653,25.033012 8.93856,8.268997 9.69441,8.655859 15.43727,7.901074 4.92525,-0.647325 8.01003,-2.654454 16.73224,-10.886863 17.427,-16.44838 32.72193,-25.232723 55.79344,-32.043876 17.80582,-5.256613 47.06913,-5.603815 65.39705,-0.77592 42.09291,11.088009 74.9706,41.443875 89.00141,82.174712 4.20135,12.19631 4.87121,16.32119 5.46505,33.6528 0.56855,16.59374 0.17475,21.81225 -2.46237,32.63056 -3.43258,14.08162 -10.60545,30.49592 -18.1415,41.51484 -2.65577,3.88313 -50.92794,52.32696 -107.27152,107.65289 -81.74603,80.26961 -103.20721,100.59261 -106.22629,100.59261 -3.01885,0 -24.17896,-20.03341 -104.70455,-99.12945 z"
         id="path1217" />
    </g>
  </g>
</svg>
