<?xml version="1.0" encoding="UTF-8" standalone="no"?>
<!-- Created with Inkscape (http://www.inkscape.org/) -->

<svg
   width="50.756741"
   height="50.880451"
   viewBox="0 0 13.429387 13.46212"
   version="1.1"
   id="svg5"
   sodipodi:docname="InfoButton.svg"
   inkscape:version="1.1.1 (3bf5ae0d25, 2021-09-20)"
   xmlns:inkscape="http://www.inkscape.org/namespaces/inkscape"
   xmlns:sodipodi="http://sodipodi.sourceforge.net/DTD/sodipodi-0.dtd"
   xmlns="http://www.w3.org/2000/svg"
   xmlns:svg="http://www.w3.org/2000/svg">
  <sodipodi:namedview
     id="namedview7"
     pagecolor="#ffffff"
     bordercolor="#666666"
     borderopacity="1.0"
     inkscape:pageshadow="2"
     inkscape:pageopacity="0.0"
     inkscape:pagecheckerboard="0"
     inkscape:document-units="mm"
     showgrid="false"
     fit-margin-top="0"
     fit-margin-left="0"
     fit-margin-right="0"
     fit-margin-bottom="0"
     inkscape:zoom="5.7157127"
     inkscape:cx="-0.43739077"
     inkscape:cy="16.883284"
     inkscape:window-width="1920"
     inkscape:window-height="991"
     inkscape:window-x="-9"
     inkscape:window-y="-9"
     inkscape:window-maximized="1"
     inkscape:current-layer="g924"
     units="px"
     width="320px" />
  <defs
     id="defs2">
    <linearGradient
       id="linearGradient14655"
       inkscape:swatch="solid">
      <stop
         style="stop-color:#000000;stop-opacity:1;"
         offset="0"
         id="stop14653" />
    </linearGradient>
    <linearGradient
       id="linearGradient4504"
       inkscape:swatch="solid">
      <stop
         style="stop-color:#000000;stop-opacity:1;"
         offset="0"
         id="stop4502" />
    </linearGradient>
    <inkscape:perspective
       sodipodi:type="inkscape:persp3d"
       inkscape:vp_x="0 : -29.316618 : 1"
       inkscape:vp_y="0 : 999.99998 : 0"
       inkscape:vp_z="85.278527 : -29.316618 : 1"
       inkscape:persp3d-origin="42.639264 : -43.498547 : 1"
       id="perspective1934" />
    <style
       id="style4895">.cls-1{fill:none;}.cls-2{fill:#3d3d63;}</style>
  </defs>
  <g
     inkscape:label="Layer 1"
     inkscape:groupmode="layer"
     id="layer1"
     transform="translate(-115.5968,-140.4453)">
    <g
       id="g924"
       transform="matrix(0.26458333,0,0,0.26458333,40.111075,83.80933)">
      <g
         id="g871" />
      <g
         id="g873" />
      <g
         id="g875" />
      <g
         id="g877" />
      <g
         id="g879" />
      <g
         id="g881" />
      <g
         id="g883" />
      <g
         id="g885" />
      <g
         id="g887" />
      <g
         id="g889" />
      <g
         id="g891" />
      <g
         id="g893" />
      <g
         id="g895" />
      <g
         id="g897" />
      <g
         id="g899" />
      <path
         style="fill:#7b08a3;fill-opacity:1;stroke:none;stroke-width:0.574183;stroke-miterlimit:4;stroke-dasharray:none;stroke-opacity:1"
         d=""
         id="path7024"
         transform="translate(216.82178,161.47571)" />
      <path
         style="fill:#7b08a3;fill-opacity:1;stroke:none;stroke-width:0.574183;stroke-miterlimit:4;stroke-dasharray:none;stroke-opacity:1"
         d=""
         id="path7488"
         transform="translate(216.82178,161.47571)" />
      <path
         style="fill:#7b08a3;fill-opacity:1;stroke:none;stroke-width:0.574183;stroke-miterlimit:4;stroke-dasharray:none;stroke-opacity:1"
         d=""
         id="path7566"
         transform="translate(216.82178,161.47571)" />
      <path
         style="fill:#7b08a3;fill-opacity:1;stroke:none;stroke-width:0.574183;stroke-miterlimit:4;stroke-dasharray:none;stroke-opacity:1"
         d=""
         id="path7605"
         transform="translate(216.82178,161.47571)" />
      <path
         style="fill:#7b08a3;fill-opacity:1;stroke:none;stroke-width:0.574183;stroke-miterlimit:4;stroke-dasharray:none;stroke-opacity:1"
         d=""
         id="path7644"
         transform="translate(216.82178,161.47571)" />
      <path
         style="fill:#7b08a3;fill-opacity:1;stroke:none;stroke-width:0.574183;stroke-miterlimit:4;stroke-dasharray:none;stroke-opacity:1"
         d=""
         id="path8332"
         transform="translate(216.82178,161.47571)" />
      <path
         style="fill:#7b08a3;fill-opacity:1;stroke:none;stroke-width:0.574183;stroke-miterlimit:4;stroke-dasharray:none;stroke-opacity:1"
         d=""
         id="path8408"
         transform="translate(216.82178,161.47571)" />
      <path
         style="fill:#7b08a3;fill-opacity:1;stroke:none;stroke-width:0.574183;stroke-miterlimit:4;stroke-dasharray:none;stroke-opacity:1"
         d=""
         id="path8521"
         transform="translate(216.82178,161.47571)" />
      <path
         style="fill:#7b08a3;fill-opacity:1;stroke:none;stroke-width:0.574183;stroke-miterlimit:4;stroke-dasharray:none;stroke-opacity:1"
         d=""
         id="path8597"
         transform="translate(216.82178,161.47571)" />
      <g
         id="g11336"
         transform="matrix(0.17952138,0,0,0.18037777,248.23351,192.23365)" />
      <g
         id="g11338"
         transform="matrix(0.17952138,0,0,0.18037777,248.23351,192.23365)" />
      <g
         id="g11340"
         transform="matrix(0.17952138,0,0,0.18037777,248.23351,192.23365)" />
      <g
         id="g11342"
         transform="matrix(0.17952138,0,0,0.18037777,248.23351,192.23365)" />
      <g
         id="g11344"
         transform="matrix(0.17952138,0,0,0.18037777,248.23351,192.23365)" />
      <g
         id="g11346"
         transform="matrix(0.17952138,0,0,0.18037777,248.23351,192.23365)" />
      <g
         id="g11348"
         transform="matrix(0.17952138,0,0,0.18037777,248.23351,192.23365)" />
      <g
         id="g11350"
         transform="matrix(0.17952138,0,0,0.18037777,248.23351,192.23365)" />
      <g
         id="g11352"
         transform="matrix(0.17952138,0,0,0.18037777,248.23351,192.23365)" />
      <g
         id="g11354"
         transform="matrix(0.17952138,0,0,0.18037777,248.23351,192.23365)" />
      <g
         id="g11356"
         transform="matrix(0.17952138,0,0,0.18037777,248.23351,192.23365)" />
      <g
         id="g11358"
         transform="matrix(0.17952138,0,0,0.18037777,248.23351,192.23365)" />
      <g
         id="g11360"
         transform="matrix(0.17952138,0,0,0.18037777,248.23351,192.23365)" />
      <g
         id="g11362"
         transform="matrix(0.17952138,0,0,0.18037777,248.23351,192.23365)" />
      <g
         id="g11364"
         transform="matrix(0.17952138,0,0,0.18037777,248.23351,192.23365)" />
      <g
         id="g23680"
         style="fill:#7b08a3;fill-opacity:1">
        <g
           id="g23267"
           transform="translate(61.73093,45.076787)"
           style="fill:#7b08a3;fill-opacity:1">
          <g
             id="g23091"
             transform="matrix(1.7437984,0,0,1.7480486,223.56944,168.98042)"
             style="fill:#7b08a3;fill-opacity:1">
            <g
               id="g23035"
               style="fill:#7b08a3;fill-opacity:1">
              <g
                 id="c149_moon"
                 style="fill:#7b08a3;fill-opacity:1">
                <path
                   id="_x3C_Compound_Path_x3E__7_"
                   d="m 14.558,2.079 c 6.877,0 12.471,5.597 12.471,12.473 0,6.877 -5.594,12.476 -12.471,12.476 C 7.679,27.028 2.08,21.429 2.08,14.552 2.08,7.676 7.679,2.079 14.558,2.079 M 14.558,0 C 6.563,0 0,6.562 0,14.552 c 0,7.995 6.563,14.555 14.558,14.555 7.995,0 14.549,-6.56 14.549,-14.555 C 29.106,6.562 22.552,0 14.558,0 Z"
                   style="fill:#7b08a3;fill-opacity:1" />
              </g>
              <g
                 id="Capa_1_226_"
                 style="fill:#7b08a3;fill-opacity:1" />
            </g>
            <g
               id="g23037"
               style="fill:#7b08a3;fill-opacity:1" />
            <g
               id="g23039"
               style="fill:#7b08a3;fill-opacity:1" />
            <g
               id="g23041"
               style="fill:#7b08a3;fill-opacity:1" />
            <g
               id="g23043"
               style="fill:#7b08a3;fill-opacity:1" />
            <g
               id="g23045"
               style="fill:#7b08a3;fill-opacity:1" />
            <g
               id="g23047"
               style="fill:#7b08a3;fill-opacity:1" />
            <g
               id="g23049"
               style="fill:#7b08a3;fill-opacity:1" />
            <g
               id="g23051"
               style="fill:#7b08a3;fill-opacity:1" />
            <g
               id="g23053"
               style="fill:#7b08a3;fill-opacity:1" />
            <g
               id="g23055"
               style="fill:#7b08a3;fill-opacity:1" />
            <g
               id="g23057"
               style="fill:#7b08a3;fill-opacity:1" />
            <g
               id="g23059"
               style="fill:#7b08a3;fill-opacity:1" />
            <g
               id="g23061"
               style="fill:#7b08a3;fill-opacity:1" />
            <g
               id="g23063"
               style="fill:#7b08a3;fill-opacity:1" />
            <g
               id="g23065"
               style="fill:#7b08a3;fill-opacity:1" />
          </g>
          <g
             id="g23227"
             transform="matrix(0.23479415,0.04140957,-0.03118636,0.27481079,236.68335,175.65609)"
             style="fill:#7b08a3;fill-opacity:1">
            <g
               id="g23173"
               style="fill:#7b08a3;fill-opacity:1">
              <path
                 d="m 78.962,99.536 -1.559,6.373 c -4.677,1.846 -8.413,3.251 -11.195,4.217 -2.785,0.969 -6.021,1.451 -9.708,1.451 -5.662,0 -10.066,-1.387 -13.207,-4.142 -3.141,-2.766 -4.712,-6.271 -4.712,-10.523 0,-1.646 0.114,-3.339 0.351,-5.064 0.239,-1.727 0.619,-3.672 1.139,-5.846 l 5.845,-20.688 c 0.52,-1.981 0.962,-3.858 1.316,-5.633 0.359,-1.764 0.532,-3.387 0.532,-4.848 0,-2.642 -0.547,-4.49 -1.636,-5.529 -1.089,-1.036 -3.167,-1.562 -6.252,-1.562 -1.511,0 -3.064,0.242 -4.647,0.71 -1.59,0.47 -2.949,0.924 -4.09,1.346 l 1.563,-6.378 c 3.829,-1.559 7.489,-2.894 10.99,-4.002 3.501,-1.111 6.809,-1.667 9.938,-1.667 5.623,0 9.962,1.359 13.009,4.077 3.047,2.72 4.57,6.246 4.57,10.591 0,0.899 -0.1,2.483 -0.315,4.747 -0.21,2.269 -0.601,4.348 -1.171,6.239 l -5.82,20.605 c -0.477,1.655 -0.906,3.547 -1.279,5.676 -0.385,2.115 -0.569,3.731 -0.569,4.815 0,2.736 0.61,4.604 1.833,5.597 1.232,0.993 3.354,1.487 6.368,1.487 1.415,0 3.025,-0.251 4.814,-0.744 1.784,-0.493 3.085,-0.926 3.892,-1.305 z M 80.438,13.03 c 0,3.59 -1.353,6.656 -4.072,9.177 -2.712,2.53 -5.98,3.796 -9.803,3.796 -3.835,0 -7.111,-1.266 -9.854,-3.796 -2.738,-2.522 -4.11,-5.587 -4.11,-9.177 0,-3.583 1.372,-6.654 4.11,-9.207 C 59.447,1.274 62.729,0 66.563,0 c 3.822,0 7.091,1.277 9.803,3.823 2.721,2.553 4.072,5.625 4.072,9.207 z"
                 id="path23171"
                 style="fill:#7b08a3;fill-opacity:1" />
            </g>
            <g
               id="g23175"
               style="fill:#7b08a3;fill-opacity:1" />
            <g
               id="g23177"
               style="fill:#7b08a3;fill-opacity:1" />
            <g
               id="g23179"
               style="fill:#7b08a3;fill-opacity:1" />
            <g
               id="g23181"
               style="fill:#7b08a3;fill-opacity:1" />
            <g
               id="g23183"
               style="fill:#7b08a3;fill-opacity:1" />
            <g
               id="g23185"
               style="fill:#7b08a3;fill-opacity:1" />
            <g
               id="g23187"
               style="fill:#7b08a3;fill-opacity:1" />
            <g
               id="g23189"
               style="fill:#7b08a3;fill-opacity:1" />
            <g
               id="g23191"
               style="fill:#7b08a3;fill-opacity:1" />
            <g
               id="g23193"
               style="fill:#7b08a3;fill-opacity:1" />
            <g
               id="g23195"
               style="fill:#7b08a3;fill-opacity:1" />
            <g
               id="g23197"
               style="fill:#7b08a3;fill-opacity:1" />
            <g
               id="g23199"
               style="fill:#7b08a3;fill-opacity:1" />
            <g
               id="g23201"
               style="fill:#7b08a3;fill-opacity:1" />
            <g
               id="g23203"
               style="fill:#7b08a3;fill-opacity:1" />
          </g>
        </g>
      </g>
      <path
         style="fill:#ffffff;fill-opacity:1;stroke:#7b08a3;stroke-width:0.0958816"
         d="M 23.444146,47.056349 C 20.434495,46.786494 17.419052,45.833717 14.783808,44.319978 9.2413627,41.136282 5.5303271,36.043985 4.160454,29.742573 3.6813692,27.538785 3.6446184,23.672383 4.0818364,21.471534 5.6229579,13.713902 11.138844,7.3782526 18.530976,4.8749828 23.919218,3.0503099 29.587591,3.4241059 34.749485,5.9444986 40.976579,8.9849957 45.200104,14.4497 46.651873,21.34467 c 0.425946,2.022971 0.430569,6.182207 0.0091,8.169 -1.659506,7.822481 -7.111911,14.05454 -14.430061,16.493452 -2.769408,0.922957 -5.953954,1.303225 -8.786745,1.049227 z m 3.045098,-7.572587 1.557971,-0.381027 0.303573,-0.893272 0.303574,-0.893275 -1.365711,0.01849 c -1.794838,0.0243 -2.331356,-0.318055 -2.41105,-1.538513 -0.06593,-1.009647 0.189847,-1.908707 1.740703,-6.118614 1.356354,-3.681924 1.813722,-5.542688 1.666956,-6.78189 -0.362184,-3.058079 -3.124158,-4.379774 -7.187413,-3.439412 l -1.733953,0.401289 -0.301739,0.890893 -0.301739,0.890892 1.481019,-0.01611 c 1.431208,-0.01557 1.495978,0.0012 1.925788,0.499555 0.399202,0.462835 0.43414,0.617353 0.341029,1.508202 -0.05706,0.545895 -0.468619,2.006548 -0.914581,3.245896 -2.116137,5.880836 -2.37617,6.724129 -2.474558,8.025047 -0.192769,2.548849 1.00114,4.231705 3.403795,4.797764 1.081513,0.254801 2.316542,0.18757 3.966336,-0.215916 z m 3.393234,-23.108724 c 2.135748,-1.111228 2.418332,-4.495588 0.514912,-6.166813 -1.595207,-1.4006115 -3.666765,-1.1448725 -4.862574,0.600297 -0.496507,0.724603 -0.668428,2.458628 -0.341867,3.448117 0.266413,0.807241 1.141137,1.818258 1.834548,2.120397 0.70158,0.305698 2.265702,0.304604 2.854981,-0.002 z"
         id="path23882"
         transform="translate(285.30038,214.05721)" />
    </g>
  </g>
</svg>
