<?xml version="1.0" encoding="UTF-8" standalone="no"?>
<!-- Created with Inkscape (http://www.inkscape.org/) -->

<svg
   width="37.084812mm"
   height="52.592125mm"
   viewBox="0 0 37.08481 52.592126"
   version="1.1"
   id="svg5"
   xmlns="http://www.w3.org/2000/svg"
   xmlns:svg="http://www.w3.org/2000/svg">
  <defs
     id="defs2"><linearGradient
   id="linearGradient4504">
  <stop
     style="stop-color:#000000;stop-opacity:1;"
     offset="0"
     id="stop4502" />
</linearGradient>
<style
   id="style4895">.cls-1{fill:none;}.cls-2{fill:#3d3d63;}</style>








	
	
	








</defs>
  <g
     id="layer1"
     transform="translate(-99.38295,-128.40873)">
    <g
       id="g924"
       transform="matrix(0.26458333,0,0,0.26458333,40.111075,83.80933)">
      <g
         id="g871">
</g>
      <g
         id="g873">
</g>
      <g
         id="g875">
</g>
      <g
         id="g877">
</g>
      <g
         id="g879">
</g>
      <g
         id="g881">
</g>
      <g
         id="g883">
</g>
      <g
         id="g885">
</g>
      <g
         id="g887">
</g>
      <g
         id="g889">
</g>
      <g
         id="g891">
</g>
      <g
         id="g893">
</g>
      <g
         id="g895">
</g>
      <g
         id="g897">
</g>
      <g
         id="g899">
</g>
      <path
         style="fill:#7b08a3;fill-opacity:1;stroke:none;stroke-width:0.574183;stroke-miterlimit:4;stroke-dasharray:none;stroke-opacity:1"
         d=""
         id="path7024"
         transform="translate(216.82178,161.47571)" />
      <path
         style="fill:#7b08a3;fill-opacity:1;stroke:none;stroke-width:0.574183;stroke-miterlimit:4;stroke-dasharray:none;stroke-opacity:1"
         d=""
         id="path7488"
         transform="translate(216.82178,161.47571)" />
      <path
         style="fill:#7b08a3;fill-opacity:1;stroke:none;stroke-width:0.574183;stroke-miterlimit:4;stroke-dasharray:none;stroke-opacity:1"
         d=""
         id="path7566"
         transform="translate(216.82178,161.47571)" />
      <path
         style="fill:#7b08a3;fill-opacity:1;stroke:none;stroke-width:0.574183;stroke-miterlimit:4;stroke-dasharray:none;stroke-opacity:1"
         d=""
         id="path7605"
         transform="translate(216.82178,161.47571)" />
      <path
         style="fill:#7b08a3;fill-opacity:1;stroke:none;stroke-width:0.574183;stroke-miterlimit:4;stroke-dasharray:none;stroke-opacity:1"
         d=""
         id="path7644"
         transform="translate(216.82178,161.47571)" />
      <path
         style="fill:#7b08a3;fill-opacity:1;stroke:none;stroke-width:0.574183;stroke-miterlimit:4;stroke-dasharray:none;stroke-opacity:1"
         d=""
         id="path8332"
         transform="translate(216.82178,161.47571)" />
      <path
         style="fill:#7b08a3;fill-opacity:1;stroke:none;stroke-width:0.574183;stroke-miterlimit:4;stroke-dasharray:none;stroke-opacity:1"
         d=""
         id="path8408"
         transform="translate(216.82178,161.47571)" />
      <path
         style="fill:#7b08a3;fill-opacity:1;stroke:none;stroke-width:0.574183;stroke-miterlimit:4;stroke-dasharray:none;stroke-opacity:1"
         d=""
         id="path8521"
         transform="translate(216.82178,161.47571)" />
      <path
         style="fill:#7b08a3;fill-opacity:1;stroke:none;stroke-width:0.574183;stroke-miterlimit:4;stroke-dasharray:none;stroke-opacity:1"
         d=""
         id="path8597"
         transform="translate(216.82178,161.47571)" />
      <rect
         id="_Transparent_Rectangle"
         style="fill:none;stroke-width:6.28872"
         width="201.23911"
         height="201.23911"
         x="222.59523"
         y="167.24916" />
      <g
         id="g12082"
         style="fill:#7b08a3;fill-opacity:1">
        <path
           d="m 294.10122,168.56468 c -38.64342,0 -70.08153,30.90177 -70.08153,68.88492 0,15.56707 11.22566,41.91784 33.36628,78.31985 16.26406,26.73883 32.75144,49.42401 32.91637,49.64995 0.87695,1.20411 2.2912,1.91867 3.79888,1.91867 1.50676,0 2.921,-0.71456 3.79889,-1.91867 0.16446,-0.22594 16.65277,-22.91112 32.91543,-49.64995 22.14062,-36.40201 33.36722,-62.75278 33.36722,-78.31985 0,-37.98315 -31.43905,-68.88492 -70.08154,-68.88492 z m 28.72596,142.43977 c -11.41769,18.77573 -22.9489,35.53038 -28.72596,43.73641 -5.77098,-8.19501 -17.28117,-24.91981 -28.69512,-43.68406 -20.96232,-34.46542 -32.04221,-59.91793 -32.04221,-73.6072 0,-32.91919 27.24583,-59.70026 60.73733,-59.70026 33.49057,0 60.73733,26.78107 60.73733,59.70026 0,13.68146 -11.06961,39.11652 -32.01137,73.55485 z"
           id="path10935"
           style="stroke-width:0.463204;fill:#7b08a3;fill-opacity:1" />
        <g
           id="g11334"
           transform="matrix(0.17952138,0,0,0.18037777,248.23351,192.23365)"
           style="fill:#7b08a3;fill-opacity:1">
	<path
   d="m 511,247.5 c 0,-0.583 -0.073,-1.147 -0.199,-1.691 C 508.407,181.198 482.131,120.8 436.166,74.834 387.908,26.577 323.747,0 255.5,0 187.253,0 123.092,26.577 74.834,74.834 26.577,123.092 0,187.253 0,255.5 0,323.747 26.577,387.908 74.834,436.166 123.092,484.423 187.253,511 255.5,511 323.747,511 387.908,484.423 436.166,436.166 484.423,387.908 511,323.747 511,255.5 c 0,-2.293 -0.035,-4.58 -0.095,-6.863 0.056,-0.372 0.095,-0.75 0.095,-1.137 z M 85.441,85.441 C 130.865,40.016 191.26,15 255.5,15 319.74,15 380.135,40.016 425.559,85.441 467.31,127.192 491.803,181.593 495.494,240 H 471 v -0.5 c 0,-4.142 -3.358,-7.5 -7.5,-7.5 H 439 v -16.5 c 0,-4.142 -3.358,-7.5 -7.5,-7.5 H 415 v -16.5 c 0,-4.142 -3.358,-7.5 -7.5,-7.5 -4.142,0 -7.5,3.358 -7.5,7.5 V 208 h -0.5 c -4.142,0 -7.5,3.358 -7.5,7.5 v 0.5 h -9 v -80.5 c 0,-4.142 -3.358,-7.5 -7.5,-7.5 h -32 c -4.142,0 -7.5,3.358 -7.5,7.5 V 208 h -9 v -16.5 c 0,-4.142 -3.358,-7.5 -7.5,-7.5 H 295 v -48.5 c 0,-2.634 -1.382,-5.076 -3.641,-6.431 l -40,-24 c -2.318,-1.39 -5.203,-1.426 -7.554,-0.095 -2.351,1.331 -3.805,3.824 -3.805,6.526 V 152 H 223 V 95.651 c 0,-0.008 0,-0.016 0,-0.024 V 63.5 c 0,-4.142 -3.358,-7.5 -7.5,-7.5 -4.142,0 -7.5,3.358 -7.5,7.5 v 26.922 l -35.286,14.114 c -2.847,1.139 -4.714,3.896 -4.714,6.963 V 192 h -17 v -16.5 c 0,-4.142 -3.358,-7.5 -7.5,-7.5 h -32 c -4.142,0 -7.5,3.358 -7.5,7.5 v 26.922 l -17,6.8 V 191.5 c 0,-4.142 -3.358,-7.5 -7.5,-7.5 -4.142,0 -7.5,3.358 -7.5,7.5 v 23.722 l -3.286,1.314 C 65.867,217.675 64,220.433 64,223.5 V 232 H 39.5 c -4.142,0 -7.5,3.358 -7.5,7.5 V 248 H 15.128 C 16.997,186.571 41.789,129.093 85.441,85.441 Z M 496,255.5 c 0,10.965 -0.746,21.814 -2.181,32.5 H 471 v -33 h 24.994 c 0,0.167 0.006,0.333 0.006,0.5 z M 439,288 v -41 h 17 v 41 z m -56,0 v -57 h 9 v 57 z m -56,0 V 263.5 223 h 9 v 65 z m -48,0 v -10.146 l 33,-5.5 V 288 Z m -23.5,160 c -4.142,0 -7.5,3.358 -7.5,7.5 v 40.373 c -30.169,-0.918 -59.381,-7.37 -86.474,-18.868 L 255.5,310.742 349.474,477.004 C 322.381,488.502 293.169,494.954 263,495.872 V 455.5 c 0,-4.142 -3.358,-7.5 -7.5,-7.5 z M 183,288 V 116.578 l 25,-10 V 288 Z m -32,0 V 255.5 207 h 17 v 81 z m -48,0 v -25 h 33 v 25 z m -24,0 v -59.422 l 25,-10 V 248 h -8.5 c -4.142,0 -7.5,3.358 -7.5,7.5 V 288 Z m -32,0 v -41 h 17 v 41 z m -29.819,0 c -1.107,-8.243 -1.798,-16.583 -2.054,-25 H 32 v 25 z M 136,248 h -17 v -40.349 c 0,-0.008 0,-0.016 0,-0.024 V 183 h 17 z m 87,-81 h 17 v 121 h -17 z m 32.637,121 c -0.004,0 -0.008,0 -0.011,0 h -0.251 c -0.004,0 -0.008,0 -0.011,0 H 255 V 124.747 l 25,15 V 262.48 l -9.733,1.622 C 266.65,264.705 264,267.833 264,271.5 V 288 Z M 312,257.146 295,259.979 V 199 h 17 z M 351,143 h 17 v 145 h -17 z m 56,80 h 17 v 65 H 407 Z M 19.664,303 h 155.836 40 27.146 L 147.86,470.698 C 125.061,459.267 104.001,444.118 85.441,425.559 51.425,391.544 28.856,349.133 19.664,303 Z M 425.559,425.559 C 407,444.119 385.939,459.267 363.14,470.698 L 268.354,303 h 75.146 32 24 32 59.836 c -9.192,46.133 -31.761,88.544 -65.777,122.559 z"
   id="path11326"
   style="fill:#7b08a3;fill-opacity:1" />

	<path
   d="m 263,407.5 c 0,-4.142 -3.358,-7.5 -7.5,-7.5 -4.142,0 -7.5,3.358 -7.5,7.5 v 24 c 0,4.142 3.358,7.5 7.5,7.5 4.142,0 7.5,-3.358 7.5,-7.5 z"
   id="path11328"
   style="fill:#7b08a3;fill-opacity:1" />

	<path
   d="m 255.5,391 c 4.142,0 7.5,-3.358 7.5,-7.5 v -8 c 0,-4.142 -3.358,-7.5 -7.5,-7.5 -4.142,0 -7.5,3.358 -7.5,7.5 v 8 c 0,4.142 3.358,7.5 7.5,7.5 z"
   id="path11330"
   style="fill:#7b08a3;fill-opacity:1" />

	<path
   d="m 255.5,359 c 1.97,0 3.91,-0.8 5.3,-2.2 1.4,-1.39 2.2,-3.33 2.2,-5.3 0,-1.97 -0.8,-3.91 -2.2,-5.3 -1.39,-1.4 -3.32,-2.2 -5.3,-2.2 -1.98,0 -3.91,0.8 -5.3,2.2 -1.4,1.39 -2.2,3.33 -2.2,5.3 0,1.97 0.8,3.91 2.2,5.3 1.39,1.4 3.33,2.2 5.3,2.2 z"
   id="path11332"
   style="fill:#7b08a3;fill-opacity:1" />

</g>
      </g>
      <g
         id="g11336"
         transform="matrix(0.17952138,0,0,0.18037777,248.23351,192.23365)">
</g>
      <g
         id="g11338"
         transform="matrix(0.17952138,0,0,0.18037777,248.23351,192.23365)">
</g>
      <g
         id="g11340"
         transform="matrix(0.17952138,0,0,0.18037777,248.23351,192.23365)">
</g>
      <g
         id="g11342"
         transform="matrix(0.17952138,0,0,0.18037777,248.23351,192.23365)">
</g>
      <g
         id="g11344"
         transform="matrix(0.17952138,0,0,0.18037777,248.23351,192.23365)">
</g>
      <g
         id="g11346"
         transform="matrix(0.17952138,0,0,0.18037777,248.23351,192.23365)">
</g>
      <g
         id="g11348"
         transform="matrix(0.17952138,0,0,0.18037777,248.23351,192.23365)">
</g>
      <g
         id="g11350"
         transform="matrix(0.17952138,0,0,0.18037777,248.23351,192.23365)">
</g>
      <g
         id="g11352"
         transform="matrix(0.17952138,0,0,0.18037777,248.23351,192.23365)">
</g>
      <g
         id="g11354"
         transform="matrix(0.17952138,0,0,0.18037777,248.23351,192.23365)">
</g>
      <g
         id="g11356"
         transform="matrix(0.17952138,0,0,0.18037777,248.23351,192.23365)">
</g>
      <g
         id="g11358"
         transform="matrix(0.17952138,0,0,0.18037777,248.23351,192.23365)">
</g>
      <g
         id="g11360"
         transform="matrix(0.17952138,0,0,0.18037777,248.23351,192.23365)">
</g>
      <g
         id="g11362"
         transform="matrix(0.17952138,0,0,0.18037777,248.23351,192.23365)">
</g>
      <g
         id="g11364"
         transform="matrix(0.17952138,0,0,0.18037777,248.23351,192.23365)">
</g>
    </g>
  </g>
</svg>
