<?xml version="1.0" encoding="UTF-8" standalone="no"?>
<!-- Created with Inkscape (http://www.inkscape.org/) -->

<svg
   width="50"
   height="50"
   viewBox="0 0 13.229166 13.229167"
   version="1.1"
   id="svg5"
   xmlns="http://www.w3.org/2000/svg"
   xmlns:svg="http://www.w3.org/2000/svg">
  <defs
     id="defs2"><linearGradient
   id="linearGradient14655">
  <stop
     style="stop-color:#000000;stop-opacity:1;"
     offset="0"
     id="stop14653" />
</linearGradient>
<linearGradient
   id="linearGradient4504">
  <stop
     style="stop-color:#000000;stop-opacity:1;"
     offset="0"
     id="stop4502" />
</linearGradient>
<style
   id="style4895">.cls-1{fill:none;}.cls-2{fill:#3d3d63;}</style>








	
	
	








</defs>
  <g
     id="layer1"
     transform="translate(-99.38295,-128.40873)">
    <g
       id="g924"
       transform="matrix(0.26458333,0,0,0.26458333,40.111075,83.80933)">
      <g
         id="g871">
</g>
      <g
         id="g873">
</g>
      <g
         id="g875">
</g>
      <g
         id="g877">
</g>
      <g
         id="g879">
</g>
      <g
         id="g881">
</g>
      <g
         id="g883">
</g>
      <g
         id="g885">
</g>
      <g
         id="g887">
</g>
      <g
         id="g889">
</g>
      <g
         id="g891">
</g>
      <g
         id="g893">
</g>
      <g
         id="g895">
</g>
      <g
         id="g897">
</g>
      <g
         id="g899">
</g>
      <path
         style="fill:#7b08a3;fill-opacity:1;stroke:none;stroke-width:0.574183;stroke-miterlimit:4;stroke-dasharray:none;stroke-opacity:1"
         d=""
         id="path7024"
         transform="translate(216.82178,161.47571)" />
      <path
         style="fill:#7b08a3;fill-opacity:1;stroke:none;stroke-width:0.574183;stroke-miterlimit:4;stroke-dasharray:none;stroke-opacity:1"
         d=""
         id="path7488"
         transform="translate(216.82178,161.47571)" />
      <path
         style="fill:#7b08a3;fill-opacity:1;stroke:none;stroke-width:0.574183;stroke-miterlimit:4;stroke-dasharray:none;stroke-opacity:1"
         d=""
         id="path7566"
         transform="translate(216.82178,161.47571)" />
      <path
         style="fill:#7b08a3;fill-opacity:1;stroke:none;stroke-width:0.574183;stroke-miterlimit:4;stroke-dasharray:none;stroke-opacity:1"
         d=""
         id="path7605"
         transform="translate(216.82178,161.47571)" />
      <path
         style="fill:#7b08a3;fill-opacity:1;stroke:none;stroke-width:0.574183;stroke-miterlimit:4;stroke-dasharray:none;stroke-opacity:1"
         d=""
         id="path7644"
         transform="translate(216.82178,161.47571)" />
      <path
         style="fill:#7b08a3;fill-opacity:1;stroke:none;stroke-width:0.574183;stroke-miterlimit:4;stroke-dasharray:none;stroke-opacity:1"
         d=""
         id="path8332"
         transform="translate(216.82178,161.47571)" />
      <path
         style="fill:#7b08a3;fill-opacity:1;stroke:none;stroke-width:0.574183;stroke-miterlimit:4;stroke-dasharray:none;stroke-opacity:1"
         d=""
         id="path8408"
         transform="translate(216.82178,161.47571)" />
      <path
         style="fill:#7b08a3;fill-opacity:1;stroke:none;stroke-width:0.574183;stroke-miterlimit:4;stroke-dasharray:none;stroke-opacity:1"
         d=""
         id="path8521"
         transform="translate(216.82178,161.47571)" />
      <path
         style="fill:#7b08a3;fill-opacity:1;stroke:none;stroke-width:0.574183;stroke-miterlimit:4;stroke-dasharray:none;stroke-opacity:1"
         d=""
         id="path8597"
         transform="translate(216.82178,161.47571)" />
      <rect
         id="_Transparent_Rectangle"
         style="fill:none;stroke-width:6.28872"
         width="201.23911"
         height="201.23911"
         x="222.59523"
         y="167.24916" />
      <g
         id="g11336"
         transform="matrix(0.17952138,0,0,0.18037777,248.23351,192.23365)">
</g>
      <g
         id="g11338"
         transform="matrix(0.17952138,0,0,0.18037777,248.23351,192.23365)">
</g>
      <g
         id="g11340"
         transform="matrix(0.17952138,0,0,0.18037777,248.23351,192.23365)">
</g>
      <g
         id="g11342"
         transform="matrix(0.17952138,0,0,0.18037777,248.23351,192.23365)">
</g>
      <g
         id="g11344"
         transform="matrix(0.17952138,0,0,0.18037777,248.23351,192.23365)">
</g>
      <g
         id="g11346"
         transform="matrix(0.17952138,0,0,0.18037777,248.23351,192.23365)">
</g>
      <g
         id="g11348"
         transform="matrix(0.17952138,0,0,0.18037777,248.23351,192.23365)">
</g>
      <g
         id="g11350"
         transform="matrix(0.17952138,0,0,0.18037777,248.23351,192.23365)">
</g>
      <g
         id="g11352"
         transform="matrix(0.17952138,0,0,0.18037777,248.23351,192.23365)">
</g>
      <g
         id="g11354"
         transform="matrix(0.17952138,0,0,0.18037777,248.23351,192.23365)">
</g>
      <g
         id="g11356"
         transform="matrix(0.17952138,0,0,0.18037777,248.23351,192.23365)">
</g>
      <g
         id="g11358"
         transform="matrix(0.17952138,0,0,0.18037777,248.23351,192.23365)">
</g>
      <g
         id="g11360"
         transform="matrix(0.17952138,0,0,0.18037777,248.23351,192.23365)">
</g>
      <g
         id="g11362"
         transform="matrix(0.17952138,0,0,0.18037777,248.23351,192.23365)">
</g>
      <g
         id="g11364"
         transform="matrix(0.17952138,0,0,0.18037777,248.23351,192.23365)">
</g>
      <g
         id="g16126">
        <ellipse
           style="fill:#ffffff;fill-opacity:1;stroke:#7b08a3;stroke-width:0.987616;stroke-miterlimit:4;stroke-dasharray:none;stroke-opacity:1"
           id="path13869"
           cx="249.00923"
           cy="193.55376"
           rx="24.249912"
           ry="24.133745" />
        <g
           data-name="plus"
           id="g16070"
           transform="matrix(2.0174306,0,0,2.0126852,224.85404,169.33909)"
           style="fill:#7b08a3;fill-opacity:1">
          <rect
             width="24"
             height="24"
             transform="rotate(180,12,12)"
             opacity="0"
             id="rect16066"
             x="0"
             y="0"
             style="fill:#7b08a3;fill-opacity:1" />
          <path
             d="M 19,11 H 13 V 5 a 1,1 0 0 0 -2,0 v 6 H 5 a 1,1 0 0 0 0,2 h 6 v 6 a 1,1 0 0 0 2,0 v -6 h 6 a 1,1 0 0 0 0,-2 z"
             id="path16068"
             style="fill:#7b08a3;fill-opacity:1" />
        </g>
      </g>
    </g>
  </g>
</svg>
