<?xml version="1.0" encoding="UTF-8" standalone="no"?>
<!-- Created with Inkscape (http://www.inkscape.org/) -->

<svg
   width="101.59519mm"
   height="98.679802mm"
   viewBox="0 0 101.59521 98.679803"
   version="1.1"
   id="svg5"
   xmlns="http://www.w3.org/2000/svg"
   xmlns:svg="http://www.w3.org/2000/svg">
  <defs
     id="defs2" />
  <g
     id="layer1"
     transform="translate(-50.024866,-57.159308)">
    <g
       id="g887"
       transform="matrix(0.26458333,0,0,0.26458333,46.355842,50.799734)">
</g>
    <g
       id="g889"
       transform="matrix(0.26458333,0,0,0.26458333,46.355842,50.799734)">
</g>
    <g
       id="g891"
       transform="matrix(0.26458333,0,0,0.26458333,46.355842,50.799734)">
</g>
    <g
       id="g893"
       transform="matrix(0.26458333,0,0,0.26458333,46.355842,50.799734)">
</g>
    <g
       id="g895"
       transform="matrix(0.26458333,0,0,0.26458333,46.355842,50.799734)">
</g>
    <g
       id="g897"
       transform="matrix(0.26458333,0,0,0.26458333,46.355842,50.799734)">
</g>
    <g
       id="g899"
       transform="matrix(0.26458333,0,0,0.26458333,46.355842,50.799734)">
</g>
    <g
       id="g901"
       transform="matrix(0.26458333,0,0,0.26458333,46.355842,50.799734)">
</g>
    <g
       id="g903"
       transform="matrix(0.26458333,0,0,0.26458333,46.355842,50.799734)">
</g>
    <g
       id="g905"
       transform="matrix(0.26458333,0,0,0.26458333,46.355842,50.799734)">
</g>
    <g
       id="g907"
       transform="matrix(0.26458333,0,0,0.26458333,46.355842,50.799734)">
</g>
    <g
       id="g909"
       transform="matrix(0.26458333,0,0,0.26458333,46.355842,50.799734)">
</g>
    <g
       id="g911"
       transform="matrix(0.26458333,0,0,0.26458333,46.355842,50.799734)">
</g>
    <g
       id="g913"
       transform="matrix(0.26458333,0,0,0.26458333,46.355842,50.799734)">
</g>
    <g
       id="g915"
       transform="matrix(0.26458333,0,0,0.26458333,46.355842,50.799734)">
</g>
    <g
       id="g2576"
       transform="matrix(0.19604999,0,0,0.19042411,50.633665,57.750636)"
       style="fill:#7b08a3;fill-opacity:1;stroke:#7b08a3;stroke-width:6.21065;stroke-miterlimit:4;stroke-dasharray:none;stroke-opacity:1">
	<g
   id="g2574"
   style="fill:#7b08a3;fill-opacity:1;stroke:#7b08a3;stroke-width:6.21065;stroke-miterlimit:4;stroke-dasharray:none;stroke-opacity:1">
		<path
   d="M 256,0 C 114.62,0 0,114.611 0,256 0,397.38 114.62,512 256,512 397.389,512 512,397.38 512,256 512,114.611 397.389,0 256,0 Z m 0,486.4 C 128.956,486.4 25.6,383.044 25.6,256 25.6,128.956 128.956,25.6 256,25.6 383.044,25.6 486.4,128.956 486.4,256 486.4,383.044 383.044,486.4 256,486.4 Z"
   id="path2572"
   style="fill:#7b08a3;fill-opacity:1;stroke:#7b08a3;stroke-width:6.21065;stroke-miterlimit:4;stroke-dasharray:none;stroke-opacity:1" />

	</g>

</g>
    <g
       id="g2582"
       transform="matrix(0.19604999,0,0,0.19042411,50.633665,57.750636)"
       style="fill:#7b08a3;fill-opacity:1;stroke:#7b08a3;stroke-width:5.17554;stroke-miterlimit:4;stroke-dasharray:none;stroke-opacity:1">
	<g
   id="g2580"
   style="fill:#7b08a3;fill-opacity:1;stroke:#7b08a3;stroke-width:5.17554;stroke-miterlimit:4;stroke-dasharray:none;stroke-opacity:1">
		<path
   d="m 376.004,324.71 c -1.604,-2.637 -4.139,-4.514 -7.603,-5.589 -3.473,-1.05 -6.673,-0.922 -9.6,0.401 -3.473,1.604 -5.734,4.403 -6.801,8.397 -5.077,16 -15.599,28.954 -31.599,38.801 -16.273,10.146 -35.2,15.198 -56.798,15.198 -26.402,0 -48.273,-7.45 -65.604,-22.4 -18.671,-15.727 -30.541,-38.801 -35.601,-69.197 h 143.198 c 3.729,0 6.929,-1.203 9.6,-3.601 2.398,-1.852 3.729,-4.25 4.002,-7.202 0.265,-2.927 -0.538,-5.325 -2.398,-7.202 -2.133,-2.125 -5.197,-3.2 -9.199,-3.2 H 160 V 254.712 244.71 h 149.999 c 3.729,0 6.929,-1.203 9.6,-3.601 2.398,-1.852 3.729,-4.25 4.002,-7.202 0.265,-2.927 -0.538,-5.325 -2.398,-7.202 -2.133,-2.125 -5.197,-3.2 -9.199,-3.2 H 161.596 c 5.598,-28.8 17.724,-51.448 36.403,-68.002 18.398,-16 40.26,-24.004 65.604,-24.004 22.127,0 40.525,4.403 55.202,13.201 14.925,9.071 25.062,22.4 30.404,40.004 1.067,4.002 3.328,7.074 6.801,9.199 2.662,1.604 5.726,2.15 9.199,1.604 3.2,-0.529 5.598,-1.997 7.202,-4.403 2.125,-2.927 2.799,-6.246 1.997,-10.001 -4.275,-20.25 -14.541,-36.651 -30.797,-49.203 -20.002,-14.925 -46.677,-22.4 -80,-22.4 -32.538,0 -60.399,10.547 -83.601,31.599 -22.673,20.548 -36.941,48 -42.803,82.398 H 115.61 c -4.002,0 -7.074,1.075 -9.199,3.2 -2.133,1.877 -3.2,4.275 -3.2,7.202 -0.273,2.953 0.529,5.35 2.398,7.202 1.86,2.398 4.659,3.601 8.397,3.601 h 21.197 v 10.001 14.404 h -19.601 c -4.002,0 -7.074,1.075 -9.199,3.2 -2.133,1.877 -3.2,4.275 -3.2,7.202 -0.273,2.953 0.529,5.35 2.398,7.202 1.86,2.398 4.659,3.601 8.397,3.601 H 137.2 c 5.598,36.002 19.601,64 42.001,84.002 21.862,19.746 49.997,29.602 84.403,29.602 32.529,0 59.059,-7.851 79.599,-23.603 15.198,-11.725 26.266,-26.65 33.203,-44.8 1.322,-4.002 1.203,-7.603 -0.402,-10.803 z"
   id="path2578"
   style="fill:#7b08a3;fill-opacity:1;stroke:#7b08a3;stroke-width:5.17554;stroke-miterlimit:4;stroke-dasharray:none;stroke-opacity:1" />

	</g>

</g>
    <g
       id="g2584"
       transform="matrix(0.19604999,0,0,0.19042411,50.633665,57.750636)">
</g>
    <g
       id="g2586"
       transform="matrix(0.19604999,0,0,0.19042411,50.633665,57.750636)">
</g>
    <g
       id="g2588"
       transform="matrix(0.19604999,0,0,0.19042411,50.633665,57.750636)">
</g>
    <g
       id="g2590"
       transform="matrix(0.19604999,0,0,0.19042411,50.633665,57.750636)">
</g>
    <g
       id="g2592"
       transform="matrix(0.19604999,0,0,0.19042411,50.633665,57.750636)">
</g>
    <g
       id="g2594"
       transform="matrix(0.19604999,0,0,0.19042411,50.633665,57.750636)">
</g>
    <g
       id="g2596"
       transform="matrix(0.19604999,0,0,0.19042411,50.633665,57.750636)">
</g>
    <g
       id="g2598"
       transform="matrix(0.19604999,0,0,0.19042411,50.633665,57.750636)">
</g>
    <g
       id="g2600"
       transform="matrix(0.19604999,0,0,0.19042411,50.633665,57.750636)">
</g>
    <g
       id="g2602"
       transform="matrix(0.19604999,0,0,0.19042411,50.633665,57.750636)">
</g>
    <g
       id="g2604"
       transform="matrix(0.19604999,0,0,0.19042411,50.633665,57.750636)">
</g>
    <g
       id="g2606"
       transform="matrix(0.19604999,0,0,0.19042411,50.633665,57.750636)">
</g>
    <g
       id="g2608"
       transform="matrix(0.19604999,0,0,0.19042411,50.633665,57.750636)">
</g>
    <g
       id="g2610"
       transform="matrix(0.19604999,0,0,0.19042411,50.633665,57.750636)">
</g>
    <g
       id="g2612"
       transform="matrix(0.19604999,0,0,0.19042411,50.633665,57.750636)">
</g>
  </g>
</svg>
