<?xml version="1.0" encoding="UTF-8" standalone="no"?>
<!-- Created with Inkscape (http://www.inkscape.org/) -->

<svg
   width="54.716805"
   height="55.270111"
   viewBox="0 0 14.477155 14.623551"
   version="1.1"
   id="svg5"
   sodipodi:docname="ProfileFull.svg"
   inkscape:version="1.1.1 (3bf5ae0d25, 2021-09-20)"
   xmlns:inkscape="http://www.inkscape.org/namespaces/inkscape"
   xmlns:sodipodi="http://sodipodi.sourceforge.net/DTD/sodipodi-0.dtd"
   xmlns="http://www.w3.org/2000/svg"
   xmlns:svg="http://www.w3.org/2000/svg">
  <sodipodi:namedview
     id="namedview7"
     pagecolor="#ffffff"
     bordercolor="#666666"
     borderopacity="1.0"
     inkscape:pageshadow="2"
     inkscape:pageopacity="0.0"
     inkscape:pagecheckerboard="0"
     inkscape:document-units="mm"
     showgrid="false"
     fit-margin-top="0"
     fit-margin-left="0"
     fit-margin-right="0"
     fit-margin-bottom="0"
     inkscape:zoom="8.0832384"
     inkscape:cx="25.266329"
     inkscape:cy="29.819934"
     inkscape:window-width="1920"
     inkscape:window-height="991"
     inkscape:window-x="-9"
     inkscape:window-y="-9"
     inkscape:window-maximized="1"
     inkscape:current-layer="layer1"
     units="px"
     width="320px" />
  <defs
     id="defs2"><linearGradient
   id="linearGradient14655"
   inkscape:swatch="solid">
  <stop
     style="stop-color:#000000;stop-opacity:1;"
     offset="0"
     id="stop14653" />
</linearGradient>
<linearGradient
   id="linearGradient4504"
   inkscape:swatch="solid">
  <stop
     style="stop-color:#000000;stop-opacity:1;"
     offset="0"
     id="stop4502" />
</linearGradient>
<inkscape:perspective
   sodipodi:type="inkscape:persp3d"
   inkscape:vp_x="0 : -67.937583 : 1"
   inkscape:vp_y="0 : 1000 : 0"
   inkscape:vp_z="85.278533 : -67.937583 : 1"
   inkscape:persp3d-origin="42.639267 : -82.119513 : 1"
   id="perspective1934" />
<style
   id="style4895">.cls-1{fill:none;}.cls-2{fill:#3d3d63;}</style>








	
	
	









	
</defs>
  <g
     inkscape:label="Layer 1"
     inkscape:groupmode="layer"
     id="layer1"
     transform="translate(-99.416885,-128.32933)">
    <g
       id="g17250"
       transform="matrix(0.02826026,0,0,0.0285788,99.382227,128.33287)">
</g>
    <g
       id="g17252"
       transform="matrix(0.02826026,0,0,0.0285788,99.382227,128.33287)">
</g>
    <g
       id="g17254"
       transform="matrix(0.02826026,0,0,0.0285788,99.382227,128.33287)">
</g>
    <g
       id="g17256"
       transform="matrix(0.02826026,0,0,0.0285788,99.382227,128.33287)">
</g>
    <g
       id="g17258"
       transform="matrix(0.02826026,0,0,0.0285788,99.382227,128.33287)">
</g>
    <g
       id="g17260"
       transform="matrix(0.02826026,0,0,0.0285788,99.382227,128.33287)">
</g>
    <g
       id="g17262"
       transform="matrix(0.02826026,0,0,0.0285788,99.382227,128.33287)">
</g>
    <g
       id="g17264"
       transform="matrix(0.02826026,0,0,0.0285788,99.382227,128.33287)">
</g>
    <g
       id="g17266"
       transform="matrix(0.02826026,0,0,0.0285788,99.382227,128.33287)">
</g>
    <g
       id="g17268"
       transform="matrix(0.02826026,0,0,0.0285788,99.382227,128.33287)">
</g>
    <g
       id="g17270"
       transform="matrix(0.02826026,0,0,0.0285788,99.382227,128.33287)">
</g>
    <g
       id="g17272"
       transform="matrix(0.02826026,0,0,0.0285788,99.382227,128.33287)">
</g>
    <g
       id="g17274"
       transform="matrix(0.02826026,0,0,0.0285788,99.382227,128.33287)">
</g>
    <g
       id="g17276"
       transform="matrix(0.02826026,0,0,0.0285788,99.382227,128.33287)">
</g>
    <g
       id="g17278"
       transform="matrix(0.02826026,0,0,0.0285788,99.382227,128.33287)">
</g>
    <path
       d="m 106.65516,128.32933 -0.28564,0.0112 -0.28278,0.0343 -0.27996,0.0558 -0.27432,0.077 -0.26868,0.1 -0.25886,0.11993 -0.24899,0.13982 -0.2375,0.15998 -0.22491,0.17713 -0.20933,0.19564 -0.19371,0.21138 -0.17677,0.2241 -0.15843,0.23847 -0.14009,0.25117 -0.12019,0.26002 -0.0977,0.26997 -0.0778,0.27701 -0.0567,0.2813 -0.0325,0.28558 -0.0116,0.28561 0.0116,0.44836 0.0312,0.44695 0.0553,0.44408 0.0764,0.44123 0.0974,0.43695 0.11878,0.43266 0.13872,0.4241 0.1598,0.41838 0.18113,0.40841 0.19948,0.40125 0.13298,0.22575 0.15131,0.21278 0.0451,0.0713 0.0274,0.0785 0.008,0.0843 -0.0116,0.0843 -0.0312,0.077 -0.0451,0.0699 -0.0621,0.0558 -0.0737,0.0414 -0.079,0.0249 -0.52174,0.097 -0.5161,0.11407 -0.51328,0.13154 -0.50763,0.15003 -0.50195,0.16856 -0.4963,0.18569 -0.20221,0.0915 -0.19098,0.11133 -0.1795,0.13126 -0.16554,0.14699 -0.14857,0.16415 -0.13162,0.17711 -0.11299,0.1915 -0.09474,0.20143 -0.128597,0.34414 -0.108878,0.34985 -0.08921,0.35555 -0.06929,0.35986 -0.04949,0.3627 -0.0051,0.15003 0.01363,0.14701 0.03394,0.14424 0.05219,0.13844 0.07057,0.12987 0.08613,0.11993 0.104507,0.10559 0.114663,0.0915 0.128615,0.0743 0.1357,0.0586 0.14284,0.0357 0.83848,0.15281 0.84273,0.12987 0.84557,0.10859 0.84839,0.087 0.84978,0.0657 0.85263,0.0443 0.85263,0.0221 h 0.8512 l 0.85263,-0.0221 0.85263,-0.0443 0.84981,-0.0657 0.84836,-0.087 0.84557,-0.10859 0.84131,-0.12987 0.8399,-0.15281 0.14283,-0.0357 0.13572,-0.0586 0.12726,-0.0743 0.11594,-0.0915 0.1031,-0.10559 0.0875,-0.11993 0.0706,-0.12987 0.0523,-0.13844 0.0339,-0.14424 0.0136,-0.14701 -0.005,-0.15003 -0.0495,-0.3627 -0.0693,-0.35986 -0.0892,-0.35555 -0.10888,-0.34985 -0.1286,-0.34414 -0.0933,-0.20143 -0.11466,-0.1915 -0.13161,-0.17711 -0.14858,-0.16415 -0.16554,-0.14699 -0.17949,-0.13126 -0.19099,-0.11133 -0.20221,-0.0915 -0.49628,-0.18569 -0.50196,-0.16856 -0.50763,-0.15003 -0.51186,-0.13126 -0.5161,-0.11445 -0.52177,-0.097 -0.0805,-0.0249 -0.0737,-0.0414 -0.0608,-0.0558 -0.0468,-0.0699 -0.0296,-0.077 -0.0136,-0.0843 0.008,-0.0843 0.0274,-0.0785 0.0438,-0.0713 0.15269,-0.21278 0.13298,-0.22575 0.19946,-0.40125 0.1795,-0.40841 0.1598,-0.41838 0.14009,-0.4241 0.11877,-0.43266 0.0974,-0.43695 0.0749,-0.44123 0.0553,-0.44408 0.0325,-0.44695 0.0116,-0.44836 -0.0116,-0.28561 -0.0339,-0.28558 -0.0567,-0.2813 -0.0763,-0.27701 -0.0991,-0.26997 -0.12006,-0.26002 -0.13846,-0.25117 -0.15843,-0.23847 -0.17813,-0.2241 -0.19235,-0.21138 -0.20932,-0.19564 -0.22492,-0.17713 -0.2375,-0.15998 -0.25036,-0.13982 -0.25885,-0.11993 -0.26732,-0.1 -0.2743,-0.077 -0.28138,-0.0558 -0.28281,-0.0343 z m -10e-4,0.7311 0.25447,0.0112 0.25173,0.0343 0.24734,0.0541 0.24189,0.077 0.23477,0.097 0.22628,0.11856 0.21343,0.13705 0.20083,0.15419 0.18798,0.1727 0.16965,0.18846 0.15541,0.20281 0.13708,0.21415 0.11608,0.22714 0.0974,0.23571 0.0763,0.24427 0.0553,0.24841 0.0325,0.25283 0.0116,0.2556 -0.0116,0.41125 -0.0298,0.41126 -0.0509,0.40837 -0.0706,0.40555 -0.0892,0.40267 -0.10888,0.39696 -0.12726,0.39128 -0.14858,0.38412 -0.16554,0.37695 -0.18387,0.36842 -0.099,0.16856 -0.11467,0.15998 -0.0919,0.1343 -0.0679,0.14701 -0.0482,0.15557 -0.0247,0.15998 v 0.16275 l 0.0247,0.16 0.0465,0.15557 0.0693,0.147 0.0905,0.13429 0.10759,0.11993 0.12585,0.10285 0.1401,0.0829 0.14994,0.0613 0.15542,0.0384 0.49632,0.0929 0.49205,0.10858 0.48781,0.12573 0.4836,0.14285 0.4779,0.16 0.47369,0.17712 0.15269,0.0699 0.14419,0.0884 0.13298,0.10422 0.12019,0.11856 0.10451,0.13124 0.0892,0.14562 0.072,0.15144 0.11466,0.30555 0.0977,0.3113 0.079,0.317 0.0608,0.31843 0.0438,0.32413 -0.001,0.0901 -0.0219,0.0884 -0.0451,0.077 -0.0608,0.0672 -0.0764,0.0472 -0.0863,0.0284 -0.82012,0.14839 -0.82433,0.12711 -0.82719,0.10697 -0.83001,0.0856 -0.83142,0.0627 -0.83424,0.0429 -0.83278,0.0221 h -0.83568 l -0.83282,-0.0221 -0.83282,-0.0429 -0.83141,-0.0627 -0.83144,-0.0856 -0.82575,-0.10722 -0.82576,-0.12711 -0.82009,-0.14837 -0.0848,-0.0284 -0.0778,-0.0472 -0.0608,-0.0672 -0.0437,-0.077 -0.0247,-0.0884 -0.001,-0.0898 0.0451,-0.32415 0.0608,-0.31844 0.0791,-0.317 0.096,-0.31127 0.11466,-0.30559 0.0737,-0.15142 0.0892,-0.14562 0.10451,-0.13126 0.12006,-0.11856 0.13298,-0.10422 0.14421,-0.0884 0.15268,-0.0699 0.47226,-0.17712 0.47794,-0.16 0.48357,-0.14285 0.48923,-0.12573 0.49206,-0.10858 0.4949,-0.0929 0.15706,-0.0384 0.14993,-0.0613 0.1401,-0.0829 0.12456,-0.10272 0.1076,-0.11993 0.0919,-0.13429 0.0679,-0.14701 0.0468,-0.15557 0.0247,-0.15999 v -0.16275 l -0.0247,-0.16 -0.0465,-0.15557 -0.0692,-0.14699 -0.0906,-0.1343 -0.11466,-0.15999 -0.0991,-0.16856 -0.18523,-0.36842 -0.16554,-0.37696 -0.14694,-0.38411 -0.12726,-0.39127 -0.10888,-0.39698 -0.0905,-0.40265 -0.0693,-0.40556 -0.0509,-0.40837 -0.0298,-0.41126 -0.0116,-0.41124 0.0136,-0.25561 0.0325,-0.25283 0.0553,-0.24842 0.0764,-0.24427 0.0977,-0.23569 0.11607,-0.22714 0.13708,-0.21415 0.15405,-0.20282 0.17102,-0.18846 0.18797,-0.1727 0.20084,-0.15418 0.21342,-0.13706 0.22492,-0.11856 0.23476,-0.097 0.24189,-0.077 0.24899,-0.0542 0.25173,-0.0343 z"
       style="fill:#7b08a3;fill-opacity:1;stroke:none;stroke-width:0px"
       id="path18667" />
    <path
       style="fill:#7b08a3;fill-opacity:1;stroke:#7b08a3;stroke-width:0.013616;stroke-miterlimit:4;stroke-dasharray:none;stroke-opacity:1"
       d="m 105.78811,142.69388 c -1.75923,-0.0432 -3.69421,-0.24558 -5.46018,-0.571 -0.449301,-0.0828 -0.534976,-0.12165 -0.612263,-0.27761 -0.04475,-0.0904 -0.04632,-0.11581 -0.02024,-0.33599 0.06498,-0.54979 0.273219,-1.29712 0.470083,-1.68703 0.12433,-0.24627 0.13372,-1.20826 0.3554,-1.32823 0.49767,-0.26928 1.76975,-0.37274 2.88878,-0.596 0.64701,-0.12909 0.60582,-0.37373 0.81991,-0.60988 0.0761,-0.0838 0.6674,0.36939 0.69519,0.31362 0.16666,-0.33465 0.17736,-0.73178 0.0284,-1.05654 -0.0319,-0.0695 -0.12179,-0.21878 -0.19975,-0.33159 -0.38554,-0.55786 -0.82617,-1.70145 -1.02452,-2.659 -0.14686,-0.70883 -0.22062,-1.56146 -0.18188,-2.10165 0.0687,-0.95636 0.58466,-1.84002 1.38742,-2.37584 1.18834,-0.7932 2.76268,-0.65816 3.80144,0.32607 0.5594,0.53002 0.88918,1.20349 0.97257,1.98615 0.0531,0.49855 -0.0273,1.45263 -0.18517,2.19663 -0.20554,0.96869 -0.62865,2.04751 -1.05096,2.67961 -0.087,0.13023 -0.18036,0.29776 -0.20748,0.37231 -0.15464,0.42519 0.21288,0.62203 0.54206,0.94916 0.19235,0.19104 0.4245,0.20458 0.91528,0.30218 1.04858,0.20868 1.65864,0.72101 2.38336,1.02092 0.37637,0.15577 0.70352,0.47334 0.88916,0.75229 0.25129,0.37759 0.52535,1.30072 0.56784,1.91273 0.0153,0.22147 0.0135,0.2327 -0.0503,0.31817 -0.0364,0.0487 -0.0966,0.10477 -0.1339,0.12446 -0.16484,0.0873 -1.92072,0.36391 -3.15815,0.49751 -1.28645,0.13892 -3.08843,0.21146 -4.43222,0.17843 z"
       id="path18867"
       sodipodi:nodetypes="ccccccccccccccccccccscccccccc" />
  </g>
</svg>
