<?xml version="1.0" encoding="UTF-8" standalone="no"?>
<!-- Created with Inkscape (http://www.inkscape.org/) -->

<svg
   width="54.716805"
   height="55.270111"
   viewBox="0 0 14.477155 14.623551"
   version="1.1"
   id="svg5"
   sodipodi:docname="ProfileEmpty.svg"
   inkscape:version="1.1.1 (3bf5ae0d25, 2021-09-20)"
   xmlns:inkscape="http://www.inkscape.org/namespaces/inkscape"
   xmlns:sodipodi="http://sodipodi.sourceforge.net/DTD/sodipodi-0.dtd"
   xmlns="http://www.w3.org/2000/svg"
   xmlns:svg="http://www.w3.org/2000/svg">
  <sodipodi:namedview
     id="namedview7"
     pagecolor="#ffffff"
     bordercolor="#666666"
     borderopacity="1.0"
     inkscape:pageshadow="2"
     inkscape:pageopacity="0.0"
     inkscape:pagecheckerboard="0"
     inkscape:document-units="mm"
     showgrid="false"
     fit-margin-top="0"
     fit-margin-left="0"
     fit-margin-right="0"
     fit-margin-bottom="0"
     inkscape:zoom="11.431425"
     inkscape:cx="16.052242"
     inkscape:cy="28.124228"
     inkscape:window-width="1920"
     inkscape:window-height="991"
     inkscape:window-x="-9"
     inkscape:window-y="-9"
     inkscape:window-maximized="1"
     inkscape:current-layer="layer1"
     units="px"
     width="320px" />
  <defs
     id="defs2">
    <linearGradient
       id="linearGradient14655"
       inkscape:swatch="solid">
      <stop
         style="stop-color:#000000;stop-opacity:1;"
         offset="0"
         id="stop14653" />
    </linearGradient>
    <linearGradient
       id="linearGradient4504"
       inkscape:swatch="solid">
      <stop
         style="stop-color:#000000;stop-opacity:1;"
         offset="0"
         id="stop4502" />
    </linearGradient>
    <inkscape:perspective
       sodipodi:type="inkscape:persp3d"
       inkscape:vp_x="0 : -67.937583 : 1"
       inkscape:vp_y="0 : 1000 : 0"
       inkscape:vp_z="85.278533 : -67.937583 : 1"
       inkscape:persp3d-origin="42.639267 : -82.119513 : 1"
       id="perspective1934" />
    <style
       id="style4895">.cls-1{fill:none;}.cls-2{fill:#3d3d63;}</style>
  </defs>
  <g
     inkscape:label="Layer 1"
     inkscape:groupmode="layer"
     id="layer1"
     transform="translate(-99.416885,-128.32933)">
    <g
       id="g17250"
       transform="matrix(0.02826026,0,0,0.0285788,99.382227,128.33287)" />
    <g
       id="g17252"
       transform="matrix(0.02826026,0,0,0.0285788,99.382227,128.33287)" />
    <g
       id="g17254"
       transform="matrix(0.02826026,0,0,0.0285788,99.382227,128.33287)" />
    <g
       id="g17256"
       transform="matrix(0.02826026,0,0,0.0285788,99.382227,128.33287)" />
    <g
       id="g17258"
       transform="matrix(0.02826026,0,0,0.0285788,99.382227,128.33287)" />
    <g
       id="g17260"
       transform="matrix(0.02826026,0,0,0.0285788,99.382227,128.33287)" />
    <g
       id="g17262"
       transform="matrix(0.02826026,0,0,0.0285788,99.382227,128.33287)" />
    <g
       id="g17264"
       transform="matrix(0.02826026,0,0,0.0285788,99.382227,128.33287)" />
    <g
       id="g17266"
       transform="matrix(0.02826026,0,0,0.0285788,99.382227,128.33287)" />
    <g
       id="g17268"
       transform="matrix(0.02826026,0,0,0.0285788,99.382227,128.33287)" />
    <g
       id="g17270"
       transform="matrix(0.02826026,0,0,0.0285788,99.382227,128.33287)" />
    <g
       id="g17272"
       transform="matrix(0.02826026,0,0,0.0285788,99.382227,128.33287)" />
    <g
       id="g17274"
       transform="matrix(0.02826026,0,0,0.0285788,99.382227,128.33287)" />
    <g
       id="g17276"
       transform="matrix(0.02826026,0,0,0.0285788,99.382227,128.33287)" />
    <g
       id="g17278"
       transform="matrix(0.02826026,0,0,0.0285788,99.382227,128.33287)" />
    <path
       d="m 106.65516,128.32933 -0.28564,0.0112 -0.28278,0.0343 -0.27996,0.0558 -0.27432,0.077 -0.26868,0.1 -0.25886,0.11993 -0.24899,0.13982 -0.2375,0.15998 -0.22491,0.17713 -0.20933,0.19564 -0.19371,0.21138 -0.17677,0.2241 -0.15843,0.23847 -0.14009,0.25117 -0.12019,0.26002 -0.0977,0.26997 -0.0778,0.27701 -0.0567,0.2813 -0.0325,0.28558 -0.0116,0.28561 0.0116,0.44836 0.0312,0.44695 0.0553,0.44408 0.0764,0.44123 0.0974,0.43695 0.11878,0.43266 0.13872,0.4241 0.1598,0.41838 0.18113,0.40841 0.19948,0.40125 0.13298,0.22575 0.15131,0.21278 0.0451,0.0713 0.0274,0.0785 0.008,0.0843 -0.0116,0.0843 -0.0312,0.077 -0.0451,0.0699 -0.0621,0.0558 -0.0737,0.0414 -0.079,0.0249 -0.52174,0.097 -0.5161,0.11407 -0.51328,0.13154 -0.50763,0.15003 -0.50195,0.16856 -0.4963,0.18569 -0.20221,0.0915 -0.19098,0.11133 -0.1795,0.13126 -0.16554,0.14699 -0.14857,0.16415 -0.13162,0.17711 -0.11299,0.1915 -0.09474,0.20143 -0.128597,0.34414 -0.108878,0.34985 -0.08921,0.35555 -0.06929,0.35986 -0.04949,0.3627 -0.0051,0.15003 0.01363,0.14701 0.03394,0.14424 0.05219,0.13844 0.07057,0.12987 0.08613,0.11993 0.104507,0.10559 0.114663,0.0915 0.128615,0.0743 0.1357,0.0586 0.14284,0.0357 0.83848,0.15281 0.84273,0.12987 0.84557,0.10859 0.84839,0.087 0.84978,0.0657 0.85263,0.0443 0.85263,0.0221 h 0.8512 l 0.85263,-0.0221 0.85263,-0.0443 0.84981,-0.0657 0.84836,-0.087 0.84557,-0.10859 0.84131,-0.12987 0.8399,-0.15281 0.14283,-0.0357 0.13572,-0.0586 0.12726,-0.0743 0.11594,-0.0915 0.1031,-0.10559 0.0875,-0.11993 0.0706,-0.12987 0.0523,-0.13844 0.0339,-0.14424 0.0136,-0.14701 -0.005,-0.15003 -0.0495,-0.3627 -0.0693,-0.35986 -0.0892,-0.35555 -0.10888,-0.34985 -0.1286,-0.34414 -0.0933,-0.20143 -0.11466,-0.1915 -0.13161,-0.17711 -0.14858,-0.16415 -0.16554,-0.14699 -0.17949,-0.13126 -0.19099,-0.11133 -0.20221,-0.0915 -0.49628,-0.18569 -0.50196,-0.16856 -0.50763,-0.15003 -0.51186,-0.13126 -0.5161,-0.11445 -0.52177,-0.097 -0.0805,-0.0249 -0.0737,-0.0414 -0.0608,-0.0558 -0.0468,-0.0699 -0.0296,-0.077 -0.0136,-0.0843 0.008,-0.0843 0.0274,-0.0785 0.0438,-0.0713 0.15269,-0.21278 0.13298,-0.22575 0.19946,-0.40125 0.1795,-0.40841 0.1598,-0.41838 0.14009,-0.4241 0.11877,-0.43266 0.0974,-0.43695 0.0749,-0.44123 0.0553,-0.44408 0.0325,-0.44695 0.0116,-0.44836 -0.0116,-0.28561 -0.0339,-0.28558 -0.0567,-0.2813 -0.0763,-0.27701 -0.0991,-0.26997 -0.12006,-0.26002 -0.13846,-0.25117 -0.15843,-0.23847 -0.17813,-0.2241 -0.19235,-0.21138 -0.20932,-0.19564 -0.22492,-0.17713 -0.2375,-0.15998 -0.25036,-0.13982 -0.25885,-0.11993 -0.26732,-0.1 -0.2743,-0.077 -0.28138,-0.0558 -0.28281,-0.0343 z m -10e-4,0.7311 0.25447,0.0112 0.25173,0.0343 0.24734,0.0541 0.24189,0.077 0.23477,0.097 0.22628,0.11856 0.21343,0.13705 0.20083,0.15419 0.18798,0.1727 0.16965,0.18846 0.15541,0.20281 0.13708,0.21415 0.11608,0.22714 0.0974,0.23571 0.0763,0.24427 0.0553,0.24841 0.0325,0.25283 0.0116,0.2556 -0.0116,0.41125 -0.0298,0.41126 -0.0509,0.40837 -0.0706,0.40555 -0.0892,0.40267 -0.10888,0.39696 -0.12726,0.39128 -0.14858,0.38412 -0.16554,0.37695 -0.18387,0.36842 -0.099,0.16856 -0.11467,0.15998 -0.0919,0.1343 -0.0679,0.14701 -0.0482,0.15557 -0.0247,0.15998 v 0.16275 l 0.0247,0.16 0.0465,0.15557 0.0693,0.147 0.0905,0.13429 0.10759,0.11993 0.12585,0.10285 0.1401,0.0829 0.14994,0.0613 0.15542,0.0384 0.49632,0.0929 0.49205,0.10858 0.48781,0.12573 0.4836,0.14285 0.4779,0.16 0.47369,0.17712 0.15269,0.0699 0.14419,0.0884 0.13298,0.10422 0.12019,0.11856 0.10451,0.13124 0.0892,0.14562 0.072,0.15144 0.11466,0.30555 0.0977,0.3113 0.079,0.317 0.0608,0.31843 0.0438,0.32413 -0.001,0.0901 -0.0219,0.0884 -0.0451,0.077 -0.0608,0.0672 -0.0764,0.0472 -0.0863,0.0284 -0.82012,0.14839 -0.82433,0.12711 -0.82719,0.10697 -0.83001,0.0856 -0.83142,0.0627 -0.83424,0.0429 -0.83278,0.0221 h -0.83568 l -0.83282,-0.0221 -0.83282,-0.0429 -0.83141,-0.0627 -0.83144,-0.0856 -0.82575,-0.10722 -0.82576,-0.12711 -0.82009,-0.14837 -0.0848,-0.0284 -0.0778,-0.0472 -0.0608,-0.0672 -0.0437,-0.077 -0.0247,-0.0884 -0.001,-0.0898 0.0451,-0.32415 0.0608,-0.31844 0.0791,-0.317 0.096,-0.31127 0.11466,-0.30559 0.0737,-0.15142 0.0892,-0.14562 0.10451,-0.13126 0.12006,-0.11856 0.13298,-0.10422 0.14421,-0.0884 0.15268,-0.0699 0.47226,-0.17712 0.47794,-0.16 0.48357,-0.14285 0.48923,-0.12573 0.49206,-0.10858 0.4949,-0.0929 0.15706,-0.0384 0.14993,-0.0613 0.1401,-0.0829 0.12456,-0.10272 0.1076,-0.11993 0.0919,-0.13429 0.0679,-0.14701 0.0468,-0.15557 0.0247,-0.15999 v -0.16275 l -0.0247,-0.16 -0.0465,-0.15557 -0.0692,-0.14699 -0.0906,-0.1343 -0.11466,-0.15999 -0.0991,-0.16856 -0.18523,-0.36842 -0.16554,-0.37696 -0.14694,-0.38411 -0.12726,-0.39127 -0.10888,-0.39698 -0.0905,-0.40265 -0.0693,-0.40556 -0.0509,-0.40837 -0.0298,-0.41126 -0.0116,-0.41124 0.0136,-0.25561 0.0325,-0.25283 0.0553,-0.24842 0.0764,-0.24427 0.0977,-0.23569 0.11607,-0.22714 0.13708,-0.21415 0.15405,-0.20282 0.17102,-0.18846 0.18797,-0.1727 0.20084,-0.15418 0.21342,-0.13706 0.22492,-0.11856 0.23476,-0.097 0.24189,-0.077 0.24899,-0.0542 0.25173,-0.0343 z"
       style="fill:#7b08a3;fill-opacity:1;stroke:none;stroke-width:0px"
       id="path18667" />
    <path
       style="fill:#ffffff;stroke:#7b08a3;stroke-width:0.0479408"
       d="M 24.318928,52.435151 C 20.041828,52.301789 15.251455,51.928036 11.547117,51.438674 7.7349754,50.93507 3.7341073,50.225665 3.3735019,49.989387 3.2446002,49.904928 3.0577675,49.676331 2.9583181,49.481394 2.8048818,49.180634 2.7861441,49.033633 2.8345778,48.510628 2.910838,47.687141 3.2564667,46.00544 3.5803535,44.88196 c 0.9436947,-3.273434 1.9195764,-4.439107 4.5113761,-5.388753 3.2947324,-1.207204 5.3506854,-1.788289 8.8352944,-2.497169 2.399252,-0.488084 2.904731,-0.688341 3.646569,-1.444679 0.855731,-0.872457 1.208468,-1.738123 1.208468,-2.965745 0,-1.021931 -0.230228,-1.700444 -0.919573,-2.710098 -1.701259,-2.491763 -3.343488,-6.909375 -3.968036,-10.67406 -0.351917,-2.121302 -0.39989,-2.710655 -0.398756,-4.898777 0.0011,-2.182745 0.0017,-2.188924 0.279261,-3.210734 1.125616,-4.1433695 4.270113,-7.1608243 8.375013,-8.0366523 4.116388,-0.8782791 8.431534,0.7773732 10.978301,4.2121989 0.918327,1.2385475 1.681929,2.9742994 1.966854,4.4708754 0.481657,2.529921 0.05203,6.974661 -1.053713,10.901276 -0.69001,2.450299 -2.031421,5.508311 -3.161701,7.207728 -0.69769,1.049002 -0.88319,1.512906 -0.958479,2.396991 -0.107281,1.25978 0.3756,2.522853 1.294168,3.385155 0.708368,0.664977 1.261159,0.892923 3.023701,1.246832 2.061774,0.413994 4.142372,0.918244 5.775977,1.399855 1.576099,0.464658 4.038931,1.348278 4.826229,1.731562 0.694424,0.338071 1.737625,1.296802 2.139412,1.96618 0.850845,1.417509 1.893829,5.197599 1.893829,6.86381 0,0.434555 -0.04044,0.580169 -0.230227,0.828992 -0.126625,0.166015 -0.357346,0.354957 -0.512713,0.419874 -0.310687,0.129813 -2.863457,0.602234 -5.118097,0.947167 -5.935743,0.908095 -11.299326,1.336572 -17.495632,1.397661 -1.804237,0.01779 -3.693765,0.01945 -4.198951,0.0037 z"
       id="path21108"
       transform="matrix(0.26458333,0,0,0.26458333,99.416885,128.32933)" />
  </g>
</svg>
