<?xml version="1.0" encoding="UTF-8" standalone="no"?>
<!-- Created with Inkscape (http://www.inkscape.org/) -->

<svg
   width="55.895916"
   height="56.375111"
   viewBox="0 0 14.789129 14.915915"
   version="1.1"
   id="svg5"
   sodipodi:docname="SettingsEmpty.svg"
   inkscape:version="1.1.1 (3bf5ae0d25, 2021-09-20)"
   xmlns:inkscape="http://www.inkscape.org/namespaces/inkscape"
   xmlns:sodipodi="http://sodipodi.sourceforge.net/DTD/sodipodi-0.dtd"
   xmlns="http://www.w3.org/2000/svg"
   xmlns:svg="http://www.w3.org/2000/svg">
  <sodipodi:namedview
     id="namedview7"
     pagecolor="#ffffff"
     bordercolor="#666666"
     borderopacity="1.0"
     inkscape:pageshadow="2"
     inkscape:pageopacity="0.0"
     inkscape:pagecheckerboard="0"
     inkscape:document-units="mm"
     showgrid="false"
     fit-margin-top="0"
     fit-margin-left="0"
     fit-margin-right="0"
     fit-margin-bottom="0"
     inkscape:zoom="8.0832384"
     inkscape:cx="25.514636"
     inkscape:cy="29.941869"
     inkscape:window-width="1920"
     inkscape:window-height="991"
     inkscape:window-x="-9"
     inkscape:window-y="-9"
     inkscape:window-maximized="1"
     inkscape:current-layer="layer1"
     units="px"
     width="320px" />
  <defs
     id="defs2"><linearGradient
   id="linearGradient14655"
   inkscape:swatch="solid">
  <stop
     style="stop-color:#000000;stop-opacity:1;"
     offset="0"
     id="stop14653" />
</linearGradient>
<linearGradient
   id="linearGradient4504"
   inkscape:swatch="solid">
  <stop
     style="stop-color:#000000;stop-opacity:1;"
     offset="0"
     id="stop4502" />
</linearGradient>
<inkscape:perspective
   sodipodi:type="inkscape:persp3d"
   inkscape:vp_x="0 : -67.645217 : 1"
   inkscape:vp_y="0 : 999.99997 : 0"
   inkscape:vp_z="85.278537 : -67.645217 : 1"
   inkscape:persp3d-origin="42.639269 : -81.827145 : 1"
   id="perspective1934" />
<style
   id="style4895">.cls-1{fill:none;}.cls-2{fill:#3d3d63;}</style>








	
	
	









	

	
	
</defs>
  <g
     inkscape:label="Layer 1"
     inkscape:groupmode="layer"
     id="layer1"
     transform="translate(-99.358624,-128.29829)">
    <g
       id="g17250"
       transform="matrix(0.02826026,0,0,0.0285788,99.382227,128.33287)">
</g>
    <g
       id="g17252"
       transform="matrix(0.02826026,0,0,0.0285788,99.382227,128.33287)">
</g>
    <g
       id="g17254"
       transform="matrix(0.02826026,0,0,0.0285788,99.382227,128.33287)">
</g>
    <g
       id="g17256"
       transform="matrix(0.02826026,0,0,0.0285788,99.382227,128.33287)">
</g>
    <g
       id="g17258"
       transform="matrix(0.02826026,0,0,0.0285788,99.382227,128.33287)">
</g>
    <g
       id="g17260"
       transform="matrix(0.02826026,0,0,0.0285788,99.382227,128.33287)">
</g>
    <g
       id="g17262"
       transform="matrix(0.02826026,0,0,0.0285788,99.382227,128.33287)">
</g>
    <g
       id="g17264"
       transform="matrix(0.02826026,0,0,0.0285788,99.382227,128.33287)">
</g>
    <g
       id="g17266"
       transform="matrix(0.02826026,0,0,0.0285788,99.382227,128.33287)">
</g>
    <g
       id="g17268"
       transform="matrix(0.02826026,0,0,0.0285788,99.382227,128.33287)">
</g>
    <g
       id="g17270"
       transform="matrix(0.02826026,0,0,0.0285788,99.382227,128.33287)">
</g>
    <g
       id="g17272"
       transform="matrix(0.02826026,0,0,0.0285788,99.382227,128.33287)">
</g>
    <g
       id="g17274"
       transform="matrix(0.02826026,0,0,0.0285788,99.382227,128.33287)">
</g>
    <g
       id="g17276"
       transform="matrix(0.02826026,0,0,0.0285788,99.382227,128.33287)">
</g>
    <g
       id="g17278"
       transform="matrix(0.02826026,0,0,0.0285788,99.382227,128.33287)">
</g>
    <g
       id="g20581">
      <path
         d="m 113.79455,134.81186 -0.84103,-0.16327 c -0.49527,-0.096 -0.901,-0.43585 -1.08491,-0.90968 -0.18445,-0.47328 -0.11642,-1.0008 0.18203,-1.41116 l 0.52806,-0.7266 c 0.0785,-0.10767 0.067,-0.25738 -0.0269,-0.35204 l -1.14057,-1.15052 c -0.0911,-0.0919 -0.23419,-0.10577 -0.34093,-0.0328 l -0.70929,0.4844 c -0.24467,0.16707 -0.52645,0.25549 -0.81549,0.25549 -0.72946,0 -1.339,-0.52644 -1.45004,-1.25223 l -0.13578,-0.89042 c -0.0196,-0.13208 -0.13256,-0.22972 -0.26538,-0.22972 h -1.61325 c -0.12879,0 -0.23983,0.0925 -0.26403,0.22023 l -0.20892,1.096 c -0.13228,0.69406 -0.73832,1.19771 -1.44036,1.19771 -0.28903,0 -0.57135,-0.0881 -0.81549,-0.25522 l -0.91605,-0.62597 c -0.10675,-0.0727 -0.24979,-0.0591 -0.34094,0.0328 l -1.14083,1.15052 c -0.0938,0.0947 -0.10513,0.2441 -0.0269,0.35232 l 0.52807,0.7266 c 0.29818,0.41008 0.36621,0.93761 0.18203,1.41116 -0.18445,0.47328 -0.58991,0.81339 -1.08518,0.9094 l -0.841035,0.16327 c -0.126371,0.0241 -0.217788,0.13616 -0.217788,0.26607 v 1.62732 c 0,0.13371 0.0968,0.24763 0.228005,0.26797 l 0.882718,0.13697 c 0.49822,0.0773 0.91632,0.40167 1.11771,0.8679 0.20165,0.4665 0.15325,0.99619 -0.1296,1.4174 l -0.48021,0.71548 c -0.0723,0.1074 -0.0586,0.25196 0.0325,0.34391 l 1.14057,1.15051 c 0.0938,0.0944 0.24171,0.10659 0.349,0.0271 l 0.72031,-0.53267 c 0.25382,-0.18769 0.55119,-0.28722 0.85959,-0.28722 0.70257,0 1.30861,0.50365 1.4409,1.1977 l 0.16186,0.84865 c 0.0242,0.12748 0.13524,0.21996 0.26403,0.21996 h 1.61325 c 0.13282,0 0.24548,-0.0976 0.26565,-0.22999 l 0.0954,-0.62625 c 0.12529,-0.82234 0.82463,-1.2525 1.45084,-1.2525 0.30813,0 0.60497,0.0993 0.85932,0.2875 l 0.50656,0.37455 c 0.10728,0.0795 0.25543,0.0673 0.349,-0.0271 l 1.14056,-1.15052 c 0.0911,-0.0919 0.10486,-0.23623 0.0325,-0.3439 l -0.48021,-0.71548 c -0.28286,-0.42121 -0.33125,-0.9509 -0.1296,-1.4174 0.20166,-0.46623 0.61949,-0.79061 1.11771,-0.86791 l 0.88271,-0.13696 c 0.13121,-0.0201 0.22801,-0.13399 0.22801,-0.2677 v -1.62732 c 0,-0.12991 -0.0914,-0.24193 -0.21833,-0.26634 z m -4.6214,1.08 c 0,1.27121 -1.02522,2.30538 -2.28543,2.30538 -1.26022,0 -2.28543,-1.03417 -2.28543,-2.30538 0,-1.27121 1.02521,-2.30537 2.28543,-2.30537 1.26021,0 2.28543,1.03416 2.28543,2.30537 z"
         id="path20051"
         style="fill:#ffffff;fill-opacity:1;stroke:#7b08a3;stroke-width:0.270045;stroke-opacity:1" />
    </g>
    <g
       id="g20057"
       style="fill:#7b08a3;fill-opacity:1"
       transform="matrix(0.26887412,0,0,0.27122043,99.493677,128.4333)">
</g>
    <g
       id="g20059"
       style="fill:#7b08a3;fill-opacity:1"
       transform="matrix(0.26887412,0,0,0.27122043,99.493677,128.4333)">
</g>
    <g
       id="g20061"
       style="fill:#7b08a3;fill-opacity:1"
       transform="matrix(0.26887412,0,0,0.27122043,99.493677,128.4333)">
</g>
    <g
       id="g20063"
       style="fill:#7b08a3;fill-opacity:1"
       transform="matrix(0.26887412,0,0,0.27122043,99.493677,128.4333)">
</g>
    <g
       id="g20065"
       style="fill:#7b08a3;fill-opacity:1"
       transform="matrix(0.26887412,0,0,0.27122043,99.493677,128.4333)">
</g>
    <g
       id="g20067"
       style="fill:#7b08a3;fill-opacity:1"
       transform="matrix(0.26887412,0,0,0.27122043,99.493677,128.4333)">
</g>
    <g
       id="g20069"
       style="fill:#7b08a3;fill-opacity:1"
       transform="matrix(0.26887412,0,0,0.27122043,99.493677,128.4333)">
</g>
    <g
       id="g20071"
       style="fill:#7b08a3;fill-opacity:1"
       transform="matrix(0.26887412,0,0,0.27122043,99.493677,128.4333)">
</g>
    <g
       id="g20073"
       style="fill:#7b08a3;fill-opacity:1"
       transform="matrix(0.26887412,0,0,0.27122043,99.493677,128.4333)">
</g>
    <g
       id="g20075"
       style="fill:#7b08a3;fill-opacity:1"
       transform="matrix(0.26887412,0,0,0.27122043,99.493677,128.4333)">
</g>
    <g
       id="g20077"
       style="fill:#7b08a3;fill-opacity:1"
       transform="matrix(0.26887412,0,0,0.27122043,99.493677,128.4333)">
</g>
    <g
       id="g20079"
       style="fill:#7b08a3;fill-opacity:1"
       transform="matrix(0.26887412,0,0,0.27122043,99.493677,128.4333)">
</g>
    <g
       id="g20081"
       style="fill:#7b08a3;fill-opacity:1"
       transform="matrix(0.26887412,0,0,0.27122043,99.493677,128.4333)">
</g>
    <g
       id="g20083"
       style="fill:#7b08a3;fill-opacity:1"
       transform="matrix(0.26887412,0,0,0.27122043,99.493677,128.4333)">
</g>
    <g
       id="g20085"
       style="fill:#7b08a3;fill-opacity:1"
       transform="matrix(0.26887412,0,0,0.27122043,99.493677,128.4333)">
</g>
  </g>
</svg>
